<svg xmlns="http://www.w3.org/2000/svg" xmlns:xlink="http://www.w3.org/1999/xlink" width="1855" height="917" style="border: 1px solid black; overflow: hidden;"><defs/><g id="container"><g id="container_1" transform="matrix(0.0000,-0.2785,0.2785,0.0000,198.3565,688.89)"><g id="container_2"/><g id="container_3"/><g id="container_4"><g id="I631"><path d="M 1000 1500.0000000000016L 923.0769230769232 1500.0000000000016" style="fill:none;stroke:#000000;stroke-width:6;stroke-linecap:round;stroke-miterlimit:10;" id="shape"/></g><g id="I669"><path d="M 961.5384615384617 2475.000000000004L 884.6153846153846 2475.000000000004M 961.5384615384617 2490.000000000004L 961.5384615384617 2460.000000000004" style="fill:none;stroke:#000000;stroke-width:6;stroke-linecap:round;stroke-miterlimit:10;" id="shape_1"/></g><g id="I701"><path d="M 1000 960.0000000000002L 961.5384615384617 960.0000000000002" style="fill:none;stroke:#000000;stroke-width:6;stroke-linecap:round;stroke-miterlimit:10;" id="shape_2"/></g><g id="I584"><path d="M 884.6153846153846 3236.250000000005L 846.1538461538462 3236.250000000005M 884.6153846153846 3262.5000000000045L 884.6153846153846 3210.000000000005" style="fill:none;stroke:#000000;stroke-width:6;stroke-linecap:round;stroke-miterlimit:10;" id="shape_3"/></g><g id="I514"><path d="M 1000 2880.000000000005L 961.5384615384617 2880.000000000005" style="fill:none;stroke:#000000;stroke-width:6;stroke-linecap:round;stroke-miterlimit:10;" id="shape_4"/></g><g id="I556"><path d="M 1000 3660.000000000001L 961.5384615384617 3660.000000000001" style="fill:none;stroke:#000000;stroke-width:6;stroke-linecap:round;stroke-miterlimit:10;" id="shape_5"/></g><g id="I629"><path d="M 1000 1530.0000000000016L 961.5384615384617 1530.0000000000016" style="fill:none;stroke:#000000;stroke-width:6;stroke-linecap:round;stroke-miterlimit:10;" id="shape_6"/></g><g id="I599"><path d="M 807.6923076923077 1199.062500000001L 769.2307692307693 1199.062500000001M 807.6923076923077 1228.1250000000007L 807.6923076923077 1170.0000000000007" style="fill:none;stroke:#000000;stroke-width:6;stroke-linecap:round;stroke-miterlimit:10;" id="shape_7"/></g><g id="I660"><path d="M 846.1538461538462 2439.375000000004L 807.6923076923077 2439.375000000004M 846.1538461538462 2520.0000000000045L 846.1538461538462 2358.7500000000036" style="fill:none;stroke:#000000;stroke-width:6;stroke-linecap:round;stroke-miterlimit:10;" id="shape_8"/></g><g id="I626"><path d="M 807.6923076923077 1575.9375000000016L 769.2307692307693 1575.9375000000016M 807.6923076923077 1629.3750000000016L 807.6923076923077 1522.5000000000016" style="fill:none;stroke:#000000;stroke-width:6;stroke-linecap:round;stroke-miterlimit:10;" id="shape_9"/></g><g id="I649"><path d="M 730.7692307692308 2211.796875000003L 692.3076923076924 2211.796875000003M 730.7692307692308 2297.3437500000036L 730.7692307692308 2126.250000000003" style="fill:none;stroke:#000000;stroke-width:6;stroke-linecap:round;stroke-miterlimit:10;" id="shape_10"/></g><g id="I739"><path d="M 884.6153846153846 60L 538.4615384615386 60M 884.6153846153846 105.00000000000001L 884.6153846153846 15" style="fill:none;stroke:#000000;stroke-width:6;stroke-linecap:round;stroke-miterlimit:10;" id="shape_11"/></g><g id="I503"><path d="M 961.5384615384617 3135.000000000006L 923.0769230769232 3135.000000000006M 961.5384615384617 3150.000000000006L 961.5384615384617 3120.0000000000055" style="fill:none;stroke:#000000;stroke-width:6;stroke-linecap:round;stroke-miterlimit:10;" id="shape_12"/></g><g id="I524"><path d="M 769.2307692307693 3950.6249999999986L 730.7692307692308 3950.6249999999986M 769.2307692307693 4046.2499999999977L 769.2307692307693 3854.9999999999995" style="fill:none;stroke:#000000;stroke-width:6;stroke-linecap:round;stroke-miterlimit:10;" id="shape_13"/></g><g id="I679"><path d="M 1000 2400.0000000000036L 961.5384615384617 2400.0000000000036" style="fill:none;stroke:#000000;stroke-width:6;stroke-linecap:round;stroke-miterlimit:10;" id="shape_14"/></g><g id="I745"><path d="M 1000 120L 961.5384615384617 120" style="fill:none;stroke:#000000;stroke-width:6;stroke-linecap:round;stroke-miterlimit:10;" id="shape_15"/></g><g id="I692"><path d="M 923.0769230769232 2002.5000000000027L 884.6153846153846 2002.5000000000027M 923.0769230769232 2025.0000000000027L 923.0769230769232 1980.0000000000027" style="fill:none;stroke:#000000;stroke-width:6;stroke-linecap:round;stroke-miterlimit:10;" id="shape_16"/></g><g id="I726"><path d="M 1000 539.9999999999999L 961.5384615384617 539.9999999999999" style="fill:none;stroke:#000000;stroke-width:6;stroke-linecap:round;stroke-miterlimit:10;" id="shape_17"/></g><g id="I699"><path d="M 1000 1830.0000000000023L 961.5384615384617 1830.0000000000023" style="fill:none;stroke:#000000;stroke-width:6;stroke-linecap:round;stroke-miterlimit:10;" id="shape_18"/></g><g id="I567"><path d="M 1000 3540.0000000000023L 961.5384615384617 3540.0000000000023" style="fill:none;stroke:#000000;stroke-width:6;stroke-linecap:round;stroke-miterlimit:10;" id="shape_19"/></g><g id="I465"><path d="M 346.1538461538462 647.0226287841801L 307.69230769230774 647.0226287841801M 346.1538461538462 1139.62875366211L 346.1538461538462 154.41650390624997" style="fill:none;stroke:#000000;stroke-width:6;stroke-linecap:round;stroke-miterlimit:10;" id="shape_20"/></g><g id="I717"><path d="M 1000 419.99999999999994L 961.5384615384617 419.99999999999994" style="fill:none;stroke:#000000;stroke-width:6;stroke-linecap:round;stroke-miterlimit:10;" id="shape_21"/></g><g id="I527"><path d="M 1000 3869.999999999999L 961.5384615384617 3869.999999999999" style="fill:none;stroke:#000000;stroke-width:6;stroke-linecap:round;stroke-miterlimit:10;" id="shape_22"/></g><g id="I602"><path d="M 1000 1200.000000000001L 846.1538461538462 1200.000000000001" style="fill:none;stroke:#000000;stroke-width:6;stroke-linecap:round;stroke-miterlimit:10;" id="shape_23"/></g><g id="I533"><path d="M 1000 3989.999999999998L 923.0769230769232 3989.999999999998" style="fill:none;stroke:#000000;stroke-width:6;stroke-linecap:round;stroke-miterlimit:10;" id="shape_24"/></g><g id="I561"><path d="M 769.2307692307693 3312.1875000000045L 615.3846153846155 3312.1875000000045M 769.2307692307693 3416.250000000003L 769.2307692307693 3208.1250000000055" style="fill:none;stroke:#000000;stroke-width:6;stroke-linecap:round;stroke-miterlimit:10;" id="shape_25"/></g><g id="I674"><path d="M 1000 2310.0000000000036L 961.5384615384617 2310.0000000000036" style="fill:none;stroke:#000000;stroke-width:6;stroke-linecap:round;stroke-miterlimit:10;" id="shape_26"/></g><g id="I492"><path d="M 769.2307692307693 2992.0312500000055L 730.7692307692308 2992.0312500000055M 769.2307692307693 3029.0625000000055L 769.2307692307693 2955.0000000000055" style="fill:none;stroke:#000000;stroke-width:6;stroke-linecap:round;stroke-miterlimit:10;" id="shape_27"/></g><g id="I472"><path d="M 884.6153846153846 858.7499999999999L 846.1538461538462 858.7499999999999M 884.6153846153846 892.5L 884.6153846153846 824.9999999999999" style="fill:none;stroke:#000000;stroke-width:6;stroke-linecap:round;stroke-miterlimit:10;" id="shape_28"/></g><g id="I468"><path d="M 1000 719.9999999999999L 769.2307692307693 719.9999999999999" style="fill:none;stroke:#000000;stroke-width:6;stroke-linecap:round;stroke-miterlimit:10;" id="shape_29"/></g><g id="I535"><path d="M 1000 4019.9999999999977L 961.5384615384617 4019.9999999999977" style="fill:none;stroke:#000000;stroke-width:6;stroke-linecap:round;stroke-miterlimit:10;" id="shape_30"/></g><g id="I164"><g id="shape_31"><path d="M 115.3846153846154 647.0226287841801L 76.92307692307693 647.0226287841801" style="fill:none;stroke:#000000;stroke-width:6;stroke-linecap:round;stroke-miterlimit:10;"/><circle cx="115.3846153846154" cy="647.0226287841801" r="2" style="fill:#000000;stroke:#000000;stroke-width:6;stroke-linecap:round;stroke-miterlimit:10;"/></g></g><g id="I655"><path d="M 1000 2160.000000000003L 961.5384615384617 2160.000000000003" style="fill:none;stroke:#000000;stroke-width:6;stroke-linecap:round;stroke-miterlimit:10;" id="shape_32"/></g><g id="I549"><path d="M 1000 4199.999999999996L 923.0769230769232 4199.999999999996" style="fill:none;stroke:#000000;stroke-width:6;stroke-linecap:round;stroke-miterlimit:10;" id="shape_33"/></g><g id="I512"><path d="M 1000 2850.000000000005L 923.0769230769232 2850.000000000005" style="fill:none;stroke:#000000;stroke-width:6;stroke-linecap:round;stroke-miterlimit:10;" id="shape_34"/></g><g id="I591"><path d="M 1000 3180.0000000000055L 846.1538461538462 3180.0000000000055" style="fill:none;stroke:#000000;stroke-width:6;stroke-linecap:round;stroke-miterlimit:10;" id="shape_35"/></g><g id="I508"><path d="M 1000 2790.000000000005L 846.1538461538462 2790.000000000005" style="fill:none;stroke:#000000;stroke-width:6;stroke-linecap:round;stroke-miterlimit:10;" id="shape_36"/></g><g id="I587"><path d="M 1000 3240.000000000005L 923.0769230769232 3240.000000000005" style="fill:none;stroke:#000000;stroke-width:6;stroke-linecap:round;stroke-miterlimit:10;" id="shape_37"/></g><g id="I506"><path d="M 1000 3060.0000000000055L 884.6153846153846 3060.0000000000055" style="fill:none;stroke:#000000;stroke-width:6;stroke-linecap:round;stroke-miterlimit:10;" id="shape_38"/></g><g id="I565"><path d="M 961.5384615384617 3525.0000000000023L 884.6153846153846 3525.0000000000023M 961.5384615384617 3540.0000000000023L 961.5384615384617 3510.0000000000023" style="fill:none;stroke:#000000;stroke-width:6;stroke-linecap:round;stroke-miterlimit:10;" id="shape_39"/></g><g id="I479"><path d="M 1000 930.0000000000001L 961.5384615384617 930.0000000000001" style="fill:none;stroke:#000000;stroke-width:6;stroke-linecap:round;stroke-miterlimit:10;" id="shape_40"/></g><g id="I498"><path d="M 846.1538461538462 3058.1250000000055L 807.6923076923077 3058.1250000000055M 846.1538461538462 3086.2500000000055L 846.1538461538462 3030.0000000000055" style="fill:none;stroke:#000000;stroke-width:6;stroke-linecap:round;stroke-miterlimit:10;" id="shape_41"/></g><g id="I715"><path d="M 961.5384615384617 404.99999999999994L 730.7692307692308 404.99999999999994M 961.5384615384617 419.99999999999994L 961.5384615384617 389.99999999999994" style="fill:none;stroke:#000000;stroke-width:6;stroke-linecap:round;stroke-miterlimit:10;" id="shape_42"/></g><g id="I525"><path d="M 961.5384615384617 3854.9999999999995L 769.2307692307693 3854.9999999999995M 961.5384615384617 3869.999999999999L 961.5384615384617 3839.9999999999995" style="fill:none;stroke:#000000;stroke-width:6;stroke-linecap:round;stroke-miterlimit:10;" id="shape_43"/></g><g id="I747"><path d="M 961.5384615384617 15L 884.6153846153846 15M 961.5384615384617 30L 961.5384615384617 0" style="fill:none;stroke:#000000;stroke-width:6;stroke-linecap:round;stroke-miterlimit:10;" id="shape_44"/></g><g id="I624"><path d="M 1000 1470.0000000000016L 961.5384615384617 1470.0000000000016" style="fill:none;stroke:#000000;stroke-width:6;stroke-linecap:round;stroke-miterlimit:10;" id="shape_45"/></g><g id="I596"><path d="M 692.3076923076924 1091.1328125000007L 653.8461538461539 1091.1328125000007M 692.3076923076924 1132.2656250000007L 692.3076923076924 1050.0000000000005" style="fill:none;stroke:#000000;stroke-width:6;stroke-linecap:round;stroke-miterlimit:10;" id="shape_46"/></g><g id="I694"><path d="M 1000 2010.0000000000027L 961.5384615384617 2010.0000000000027" style="fill:none;stroke:#000000;stroke-width:6;stroke-linecap:round;stroke-miterlimit:10;" id="shape_47"/></g><g id="I600"><path d="M 1000 1170.0000000000007L 807.6923076923077 1170.0000000000007" style="fill:none;stroke:#000000;stroke-width:6;stroke-linecap:round;stroke-miterlimit:10;" id="shape_48"/></g><g id="I582"><path d="M 1000 3360.0000000000036L 961.5384615384617 3360.0000000000036" style="fill:none;stroke:#000000;stroke-width:6;stroke-linecap:round;stroke-miterlimit:10;" id="shape_49"/></g><g id="I491"><path d="M 730.7692307692308 2905.0781250000055L 692.3076923076924 2905.0781250000055M 730.7692307692308 2992.0312500000055L 730.7692307692308 2818.125000000005" style="fill:none;stroke:#000000;stroke-width:6;stroke-linecap:round;stroke-miterlimit:10;" id="shape_50"/></g><g id="I722"><path d="M 807.6923076923077 550.3124999999999L 769.2307692307693 550.3124999999999M 807.6923076923077 590.6249999999999L 807.6923076923077 509.99999999999994" style="fill:none;stroke:#000000;stroke-width:6;stroke-linecap:round;stroke-miterlimit:10;" id="shape_51"/></g><g id="I732"><path d="M 1000 659.9999999999999L 961.5384615384617 659.9999999999999" style="fill:none;stroke:#000000;stroke-width:6;stroke-linecap:round;stroke-miterlimit:10;" id="shape_52"/></g><g id="I478"><path d="M 1000 900.0000000000001L 961.5384615384617 900.0000000000001" style="fill:none;stroke:#000000;stroke-width:6;stroke-linecap:round;stroke-miterlimit:10;" id="shape_53"/></g><g id="I653"><path d="M 1000 2130.000000000003L 923.0769230769232 2130.000000000003" style="fill:none;stroke:#000000;stroke-width:6;stroke-linecap:round;stroke-miterlimit:10;" id="shape_54"/></g><g id="I672"><path d="M 884.6153846153846 2358.7500000000036L 846.1538461538462 2358.7500000000036M 884.6153846153846 2392.5000000000036L 884.6153846153846 2325.000000000003" style="fill:none;stroke:#000000;stroke-width:6;stroke-linecap:round;stroke-miterlimit:10;" id="shape_55"/></g><g id="I704"><path d="M 576.9230769230769 248.83300781249997L 538.4615384615386 248.83300781249997M 576.9230769230769 302.66601562499994L 576.9230769230769 194.99999999999997" style="fill:none;stroke:#000000;stroke-width:6;stroke-linecap:round;stroke-miterlimit:10;" id="shape_56"/></g><g id="I560"><path d="M 1000 3750.0000000000005L 961.5384615384617 3750.0000000000005" style="fill:none;stroke:#000000;stroke-width:6;stroke-linecap:round;stroke-miterlimit:10;" id="shape_57"/></g><g id="I542"><path d="M 1000 4079.9999999999973L 961.5384615384617 4079.9999999999973" style="fill:none;stroke:#000000;stroke-width:6;stroke-linecap:round;stroke-miterlimit:10;" id="shape_58"/></g><g id="I677"><path d="M 1000 2370.0000000000036L 923.0769230769232 2370.0000000000036" style="fill:none;stroke:#000000;stroke-width:6;stroke-linecap:round;stroke-miterlimit:10;" id="shape_59"/></g><g id="I585"><path d="M 1000 3210.000000000005L 884.6153846153846 3210.000000000005" style="fill:none;stroke:#000000;stroke-width:6;stroke-linecap:round;stroke-miterlimit:10;" id="shape_60"/></g><g id="I724"><path d="M 846.1538461538462 590.6249999999999L 807.6923076923077 590.6249999999999M 846.1538461538462 626.2499999999999L 846.1538461538462 554.9999999999999" style="fill:none;stroke:#000000;stroke-width:6;stroke-linecap:round;stroke-miterlimit:10;" id="shape_61"/></g><g id="I637"><path d="M 923.0769230769232 1702.500000000002L 884.6153846153846 1702.500000000002M 923.0769230769232 1725.0000000000018L 923.0769230769232 1680.0000000000018" style="fill:none;stroke:#000000;stroke-width:6;stroke-linecap:round;stroke-miterlimit:10;" id="shape_62"/></g><g id="I662"><path d="M 923.0769230769232 2565.0000000000045L 884.6153846153846 2565.0000000000045M 923.0769230769232 2595.0000000000045L 923.0769230769232 2535.000000000004" style="fill:none;stroke:#000000;stroke-width:6;stroke-linecap:round;stroke-miterlimit:10;" id="shape_63"/></g><g id="I614"><path d="M 1000 1050.0000000000005L 692.3076923076924 1050.0000000000005" style="fill:none;stroke:#000000;stroke-width:6;stroke-linecap:round;stroke-miterlimit:10;" id="shape_64"/></g><g id="I749"><path d="M 1000 30L 961.5384615384617 30" style="fill:none;stroke:#000000;stroke-width:6;stroke-linecap:round;stroke-miterlimit:10;" id="shape_65"/></g><g id="I729"><path d="M 923.0769230769232 652.4999999999999L 884.6153846153846 652.4999999999999M 923.0769230769232 674.9999999999999L 923.0769230769232 629.9999999999999" style="fill:none;stroke:#000000;stroke-width:6;stroke-linecap:round;stroke-miterlimit:10;" id="shape_66"/></g><g id="I522"><path d="M 730.7692307692308 3880.312499999999L 692.3076923076924 3880.312499999999M 730.7692307692308 3950.6249999999986L 730.7692307692308 3809.9999999999995" style="fill:none;stroke:#000000;stroke-width:6;stroke-linecap:round;stroke-miterlimit:10;" id="shape_67"/></g><g id="I540"><path d="M 846.1538461538462 4141.874999999996L 807.6923076923077 4141.874999999996M 846.1538461538462 4188.749999999996L 846.1538461538462 4094.9999999999973" style="fill:none;stroke:#000000;stroke-width:6;stroke-linecap:round;stroke-miterlimit:10;" id="shape_68"/></g><g id="I712"><path d="M 653.8461538461539 350.33203124999994L 615.3846153846155 350.33203124999994M 653.8461538461539 400.66406249999994L 653.8461538461539 299.99999999999994" style="fill:none;stroke:#000000;stroke-width:6;stroke-linecap:round;stroke-miterlimit:10;" id="shape_69"/></g><g id="I735"><path d="M 961.5384615384617 344.99999999999994L 692.3076923076924 344.99999999999994M 961.5384615384617 359.99999999999994L 961.5384615384617 329.99999999999994" style="fill:none;stroke:#000000;stroke-width:6;stroke-linecap:round;stroke-miterlimit:10;" id="shape_70"/></g><g id="I610"><path d="M 1000 1140.0000000000007L 769.2307692307693 1140.0000000000007" style="fill:none;stroke:#000000;stroke-width:6;stroke-linecap:round;stroke-miterlimit:10;" id="shape_71"/></g><g id="I484"><path d="M 500 2798.1152343750045L 461.5384615384616 2798.1152343750045M 500 2941.230468750004L 500 2655.0000000000045" style="fill:none;stroke:#000000;stroke-width:6;stroke-linecap:round;stroke-miterlimit:10;" id="shape_72"/></g><g id="I650"><path d="M 884.6153846153846 2126.250000000003L 730.7692307692308 2126.250000000003M 884.6153846153846 2152.500000000003L 884.6153846153846 2100.000000000003" style="fill:none;stroke:#000000;stroke-width:6;stroke-linecap:round;stroke-miterlimit:10;" id="shape_73"/></g><g id="I547"><path d="M 1000 4169.999999999996L 961.5384615384617 4169.999999999996" style="fill:none;stroke:#000000;stroke-width:6;stroke-linecap:round;stroke-miterlimit:10;" id="shape_74"/></g><g id="I714"><path d="M 730.7692307692308 456.32812499999994L 692.3076923076924 456.32812499999994M 730.7692307692308 507.65624999999994L 730.7692307692308 404.99999999999994" style="fill:none;stroke:#000000;stroke-width:6;stroke-linecap:round;stroke-miterlimit:10;" id="shape_75"/></g><g id="I456"><g id="shape_76"><path d="M 230.7692307692308 647.0226287841801L 192.30769230769232 647.0226287841801" style="fill:none;stroke:#000000;stroke-width:6;stroke-linecap:round;stroke-miterlimit:10;"/><circle cx="230.7692307692308" cy="647.0226287841801" r="2" style="fill:#000000;stroke:#000000;stroke-width:6;stroke-linecap:round;stroke-miterlimit:10;"/></g></g><g id="I625"><path d="M 1000 1350.0000000000011L 884.6153846153846 1350.0000000000011" style="fill:none;stroke:#000000;stroke-width:6;stroke-linecap:round;stroke-miterlimit:10;" id="shape_77"/></g><g id="I634"><path d="M 961.5384615384617 1635.000000000002L 884.6153846153846 1635.000000000002M 961.5384615384617 1650.0000000000018L 961.5384615384617 1620.0000000000018" style="fill:none;stroke:#000000;stroke-width:6;stroke-linecap:round;stroke-miterlimit:10;" id="shape_78"/></g><g id="I606"><path d="M 1000 1260.000000000001L 923.0769230769232 1260.000000000001" style="fill:none;stroke:#000000;stroke-width:6;stroke-linecap:round;stroke-miterlimit:10;" id="shape_79"/></g><g id="I733"><path d="M 1000 689.9999999999999L 961.5384615384617 689.9999999999999" style="fill:none;stroke:#000000;stroke-width:6;stroke-linecap:round;stroke-miterlimit:10;" id="shape_80"/></g><g id="I642"><path d="M 1000 1590.0000000000016L 846.1538461538462 1590.0000000000016" style="fill:none;stroke:#000000;stroke-width:6;stroke-linecap:round;stroke-miterlimit:10;" id="shape_81"/></g><g id="I531"><path d="M 1000 3959.999999999998L 884.6153846153846 3959.999999999998" style="fill:none;stroke:#000000;stroke-width:6;stroke-linecap:round;stroke-miterlimit:10;" id="shape_82"/></g><g id="I461"><g id="shape_83"><path d="M 307.69230769230774 647.0226287841801L 269.2307692307693 647.0226287841801" style="fill:none;stroke:#000000;stroke-width:6;stroke-linecap:round;stroke-miterlimit:10;"/><circle cx="307.69230769230774" cy="647.0226287841801" r="2" style="fill:#000000;stroke:#000000;stroke-width:6;stroke-linecap:round;stroke-miterlimit:10;"/></g></g><g id="I700"><path d="M 961.5384615384617 975.0000000000002L 423.0769230769231 975.0000000000002M 961.5384615384617 990.0000000000003L 961.5384615384617 960.0000000000002" style="fill:none;stroke:#000000;stroke-width:6;stroke-linecap:round;stroke-miterlimit:10;" id="shape_84"/></g><g id="I730"><path d="M 1000 629.9999999999999L 923.0769230769232 629.9999999999999" style="fill:none;stroke:#000000;stroke-width:6;stroke-linecap:round;stroke-miterlimit:10;" id="shape_85"/></g><g id="I496"><path d="M 807.6923076923077 3029.0625000000055L 769.2307692307693 3029.0625000000055M 807.6923076923077 3058.1250000000055L 807.6923076923077 3000.0000000000055" style="fill:none;stroke:#000000;stroke-width:6;stroke-linecap:round;stroke-miterlimit:10;" id="shape_86"/></g><g id="I551"><path d="M 1000 4229.999999999996L 961.5384615384617 4229.999999999996" style="fill:none;stroke:#000000;stroke-width:6;stroke-linecap:round;stroke-miterlimit:10;" id="shape_87"/></g><g id="I696"><path d="M 1000 1980.0000000000027L 923.0769230769232 1980.0000000000027" style="fill:none;stroke:#000000;stroke-width:6;stroke-linecap:round;stroke-miterlimit:10;" id="shape_88"/></g><g id="I720"><path d="M 1000 449.99999999999994L 961.5384615384617 449.99999999999994" style="fill:none;stroke:#000000;stroke-width:6;stroke-linecap:round;stroke-miterlimit:10;" id="shape_89"/></g><g id="I740"><path d="M 923.0769230769232 105.00000000000001L 884.6153846153846 105.00000000000001M 923.0769230769232 135L 923.0769230769232 75" style="fill:none;stroke:#000000;stroke-width:6;stroke-linecap:round;stroke-miterlimit:10;" id="shape_90"/></g><g id="I476"><path d="M 923.0769230769232 892.5L 884.6153846153846 892.5M 923.0769230769232 915.0000000000001L 923.0769230769232 870" style="fill:none;stroke:#000000;stroke-width:6;stroke-linecap:round;stroke-miterlimit:10;" id="shape_91"/></g><g id="I727"><path d="M 1000 569.9999999999999L 961.5384615384617 569.9999999999999" style="fill:none;stroke:#000000;stroke-width:6;stroke-linecap:round;stroke-miterlimit:10;" id="shape_92"/></g><g id="I665"><path d="M 1000 2550.000000000004L 961.5384615384617 2550.000000000004" style="fill:none;stroke:#000000;stroke-width:6;stroke-linecap:round;stroke-miterlimit:10;" id="shape_93"/></g><g id="I597"><path d="M 730.7692307692308 1132.2656250000007L 692.3076923076924 1132.2656250000007M 730.7692307692308 1169.531250000001L 730.7692307692308 1095.0000000000007" style="fill:none;stroke:#000000;stroke-width:6;stroke-linecap:round;stroke-miterlimit:10;" id="shape_94"/></g><g id="I572"><path d="M 1000 3570.000000000002L 923.0769230769232 3570.000000000002" style="fill:none;stroke:#000000;stroke-width:6;stroke-linecap:round;stroke-miterlimit:10;" id="shape_95"/></g><g id="I500"><path d="M 884.6153846153846 3086.2500000000055L 846.1538461538462 3086.2500000000055M 884.6153846153846 3112.500000000006L 884.6153846153846 3060.0000000000055" style="fill:none;stroke:#000000;stroke-width:6;stroke-linecap:round;stroke-miterlimit:10;" id="shape_96"/></g><g id="I683"><path d="M 1000 2250.000000000003L 961.5384615384617 2250.000000000003" style="fill:none;stroke:#000000;stroke-width:6;stroke-linecap:round;stroke-miterlimit:10;" id="shape_97"/></g><g id="I539"><path d="M 1000 3929.9999999999986L 961.5384615384617 3929.9999999999986" style="fill:none;stroke:#000000;stroke-width:6;stroke-linecap:round;stroke-miterlimit:10;" id="shape_98"/></g><g id="I520"><path d="M 653.8461538461539 3767.5781249999995L 615.3846153846155 3767.5781249999995M 653.8461538461539 3830.156249999999L 653.8461538461539 3705.000000000001" style="fill:none;stroke:#000000;stroke-width:6;stroke-linecap:round;stroke-miterlimit:10;" id="shape_99"/></g><g id="I489"><path d="M 576.9230769230769 3182.460937500003L 538.4615384615386 3182.460937500003M 576.9230769230769 3539.882812500002L 576.9230769230769 2825.039062500005" style="fill:none;stroke:#000000;stroke-width:6;stroke-linecap:round;stroke-miterlimit:10;" id="shape_100"/></g><g id="I580"><path d="M 961.5384615384617 3345.000000000004L 807.6923076923077 3345.000000000004M 961.5384615384617 3360.0000000000036L 961.5384615384617 3330.000000000004" style="fill:none;stroke:#000000;stroke-width:6;stroke-linecap:round;stroke-miterlimit:10;" id="shape_101"/></g><g id="I675"><path d="M 1000 2340.0000000000036L 961.5384615384617 2340.0000000000036" style="fill:none;stroke:#000000;stroke-width:6;stroke-linecap:round;stroke-miterlimit:10;" id="shape_102"/></g><g id="I609"><path d="M 1000 1320.0000000000011L 961.5384615384617 1320.0000000000011" style="fill:none;stroke:#000000;stroke-width:6;stroke-linecap:round;stroke-miterlimit:10;" id="shape_103"/></g><g id="I670"><path d="M 1000 2460.000000000004L 961.5384615384617 2460.000000000004" style="fill:none;stroke:#000000;stroke-width:6;stroke-linecap:round;stroke-miterlimit:10;" id="shape_104"/></g><g id="I619"><path d="M 961.5384615384617 1395.0000000000014L 923.0769230769232 1395.0000000000014M 961.5384615384617 1410.0000000000014L 961.5384615384617 1380.0000000000014" style="fill:none;stroke:#000000;stroke-width:6;stroke-linecap:round;stroke-miterlimit:10;" id="shape_105"/></g><g id="I501"><path d="M 923.0769230769232 3112.500000000006L 884.6153846153846 3112.500000000006M 923.0769230769232 3135.000000000006L 923.0769230769232 3090.0000000000055" style="fill:none;stroke:#000000;stroke-width:6;stroke-linecap:round;stroke-miterlimit:10;" id="shape_106"/></g><g id="I659"><path d="M 1000 2280.0000000000036L 807.6923076923077 2280.0000000000036" style="fill:none;stroke:#000000;stroke-width:6;stroke-linecap:round;stroke-miterlimit:10;" id="shape_107"/></g><g id="I706"><path d="M 1000 180L 961.5384615384617 180" style="fill:none;stroke:#000000;stroke-width:6;stroke-linecap:round;stroke-miterlimit:10;" id="shape_108"/></g><g id="I581"><path d="M 1000 3330.000000000004L 961.5384615384617 3330.000000000004" style="fill:none;stroke:#000000;stroke-width:6;stroke-linecap:round;stroke-miterlimit:10;" id="shape_109"/></g><g id="I620"><path d="M 1000 1380.0000000000014L 961.5384615384617 1380.0000000000014" style="fill:none;stroke:#000000;stroke-width:6;stroke-linecap:round;stroke-miterlimit:10;" id="shape_110"/></g><g id="I553"><path d="M 1000 3780L 692.3076923076924 3780" style="fill:none;stroke:#000000;stroke-width:6;stroke-linecap:round;stroke-miterlimit:10;" id="shape_111"/></g><g id="I707"><path d="M 1000 209.99999999999997L 961.5384615384617 209.99999999999997" style="fill:none;stroke:#000000;stroke-width:6;stroke-linecap:round;stroke-miterlimit:10;" id="shape_112"/></g><g id="I633"><path d="M 884.6153846153846 1668.750000000002L 846.1538461538462 1668.750000000002M 884.6153846153846 1702.500000000002L 884.6153846153846 1635.000000000002" style="fill:none;stroke:#000000;stroke-width:6;stroke-linecap:round;stroke-miterlimit:10;" id="shape_113"/></g><g id="I616"><path d="M 769.2307692307693 1481.7187500000016L 538.4615384615386 1481.7187500000016M 769.2307692307693 1575.9375000000016L 769.2307692307693 1387.5000000000014" style="fill:none;stroke:#000000;stroke-width:6;stroke-linecap:round;stroke-miterlimit:10;" id="shape_114"/></g><g id="I473"><path d="M 961.5384615384617 824.9999999999999L 884.6153846153846 824.9999999999999M 961.5384615384617 839.9999999999999L 961.5384615384617 809.9999999999999" style="fill:none;stroke:#000000;stroke-width:6;stroke-linecap:round;stroke-miterlimit:10;" id="shape_115"/></g><g id="I481"><path d="M 1000 749.9999999999999L 807.6923076923077 749.9999999999999" style="fill:none;stroke:#000000;stroke-width:6;stroke-linecap:round;stroke-miterlimit:10;" id="shape_116"/></g><g id="I545"><path d="M 961.5384615384617 4154.999999999996L 884.6153846153846 4154.999999999996M 961.5384615384617 4169.999999999996L 961.5384615384617 4139.999999999996" style="fill:none;stroke:#000000;stroke-width:6;stroke-linecap:round;stroke-miterlimit:10;" id="shape_117"/></g><g id="I516"><path d="M 961.5384615384617 2745.0000000000045L 692.3076923076924 2745.0000000000045M 961.5384615384617 2760.0000000000045L 961.5384615384617 2730.0000000000045" style="fill:none;stroke:#000000;stroke-width:6;stroke-linecap:round;stroke-miterlimit:10;" id="shape_118"/></g><g id="I482"><path d="M 423.0769230769231 1526.9137573242203L 384.61538461538464 1526.9137573242203M 423.0769230769231 2078.8275146484402L 423.0769230769231 975.0000000000002" style="fill:none;stroke:#000000;stroke-width:6;stroke-linecap:round;stroke-miterlimit:10;" id="shape_119"/></g><g id="I657"><path d="M 769.2307692307693 2297.3437500000036L 730.7692307692308 2297.3437500000036M 769.2307692307693 2359.687500000004L 769.2307692307693 2235.0000000000036" style="fill:none;stroke:#000000;stroke-width:6;stroke-linecap:round;stroke-miterlimit:10;" id="shape_120"/></g><g id="I737"><path d="M 1000 359.99999999999994L 961.5384615384617 359.99999999999994" style="fill:none;stroke:#000000;stroke-width:6;stroke-linecap:round;stroke-miterlimit:10;" id="shape_121"/></g><g id="I563"><path d="M 846.1538461538462 3487.5000000000027L 807.6923076923077 3487.5000000000027M 846.1538461538462 3558.750000000002L 846.1538461538462 3416.250000000003" style="fill:none;stroke:#000000;stroke-width:6;stroke-linecap:round;stroke-miterlimit:10;" id="shape_122"/></g><g id="I577"><path d="M 1000 3450.000000000003L 961.5384615384617 3450.000000000003" style="fill:none;stroke:#000000;stroke-width:6;stroke-linecap:round;stroke-miterlimit:10;" id="shape_123"/></g><g id="I507"><path d="M 846.1538461538462 2818.125000000005L 730.7692307692308 2818.125000000005M 846.1538461538462 2846.250000000005L 846.1538461538462 2790.000000000005" style="fill:none;stroke:#000000;stroke-width:6;stroke-linecap:round;stroke-miterlimit:10;" id="shape_124"/></g><g id="I622"><path d="M 961.5384615384617 1455.0000000000016L 923.0769230769232 1455.0000000000016M 961.5384615384617 1470.0000000000016L 961.5384615384617 1440.0000000000014" style="fill:none;stroke:#000000;stroke-width:6;stroke-linecap:round;stroke-miterlimit:10;" id="shape_125"/></g><g id="I518"><path d="M 1000 2760.0000000000045L 961.5384615384617 2760.0000000000045" style="fill:none;stroke:#000000;stroke-width:6;stroke-linecap:round;stroke-miterlimit:10;" id="shape_126"/></g><g id="I719"><path d="M 961.5384615384617 465L 769.2307692307693 465M 961.5384615384617 479.99999999999994L 961.5384615384617 449.99999999999994" style="fill:none;stroke:#000000;stroke-width:6;stroke-linecap:round;stroke-miterlimit:10;" id="shape_127"/></g><g id="I575"><path d="M 923.0769230769232 3442.500000000003L 884.6153846153846 3442.500000000003M 923.0769230769232 3465.0000000000027L 923.0769230769232 3420.000000000003" style="fill:none;stroke:#000000;stroke-width:6;stroke-linecap:round;stroke-miterlimit:10;" id="shape_128"/></g><g id="I668"><path d="M 1000 2610.000000000004L 961.5384615384617 2610.000000000004" style="fill:none;stroke:#000000;stroke-width:6;stroke-linecap:round;stroke-miterlimit:10;" id="shape_129"/></g><g id="I495"><path d="M 1000 2970.0000000000055L 961.5384615384617 2970.0000000000055" style="fill:none;stroke:#000000;stroke-width:6;stroke-linecap:round;stroke-miterlimit:10;" id="shape_130"/></g><g id="I667"><path d="M 1000 2580.000000000004L 961.5384615384617 2580.000000000004" style="fill:none;stroke:#000000;stroke-width:6;stroke-linecap:round;stroke-miterlimit:10;" id="shape_131"/></g><g id="I638"><path d="M 961.5384615384617 1725.0000000000018L 923.0769230769232 1725.0000000000018M 961.5384615384617 1740.000000000002L 961.5384615384617 1710.000000000002" style="fill:none;stroke:#000000;stroke-width:6;stroke-linecap:round;stroke-miterlimit:10;" id="shape_132"/></g><g id="I537"><path d="M 961.5384615384617 3914.9999999999986L 846.1538461538462 3914.9999999999986M 961.5384615384617 3929.9999999999986L 961.5384615384617 3899.999999999999" style="fill:none;stroke:#000000;stroke-width:6;stroke-linecap:round;stroke-miterlimit:10;" id="shape_133"/></g><g id="I691"><path d="M 1000 1950.0000000000025L 884.6153846153846 1950.0000000000025" style="fill:none;stroke:#000000;stroke-width:6;stroke-linecap:round;stroke-miterlimit:10;" id="shape_134"/></g><g id="I645"><path d="M 615.3846153846155 1920.6152343750025L 576.9230769230769 1920.6152343750025M 615.3846153846155 2026.230468750003L 615.3846153846155 1815.0000000000025" style="fill:none;stroke:#000000;stroke-width:6;stroke-linecap:round;stroke-miterlimit:10;" id="shape_135"/></g><g id="I523"><path d="M 1000 3809.9999999999995L 730.7692307692308 3809.9999999999995" style="fill:none;stroke:#000000;stroke-width:6;stroke-linecap:round;stroke-miterlimit:10;" id="shape_136"/></g><g id="I574"><path d="M 1000 3390.0000000000036L 884.6153846153846 3390.0000000000036" style="fill:none;stroke:#000000;stroke-width:6;stroke-linecap:round;stroke-miterlimit:10;" id="shape_137"/></g><g id="I725"><path d="M 961.5384615384617 554.9999999999999L 846.1538461538462 554.9999999999999M 961.5384615384617 569.9999999999999L 961.5384615384617 539.9999999999999" style="fill:none;stroke:#000000;stroke-width:6;stroke-linecap:round;stroke-miterlimit:10;" id="shape_138"/></g><g id="I557"><path d="M 1000 3690.000000000001L 961.5384615384617 3690.000000000001" style="fill:none;stroke:#000000;stroke-width:6;stroke-linecap:round;stroke-miterlimit:10;" id="shape_139"/></g><g id="I685"><path d="M 961.5384615384617 1875.0000000000025L 807.6923076923077 1875.0000000000025M 961.5384615384617 1890.0000000000025L 961.5384615384617 1860.0000000000023" style="fill:none;stroke:#000000;stroke-width:6;stroke-linecap:round;stroke-miterlimit:10;" id="shape_140"/></g><g id="I487"><path d="M 1000 2670.0000000000045L 961.5384615384617 2670.0000000000045" style="fill:none;stroke:#000000;stroke-width:6;stroke-linecap:round;stroke-miterlimit:10;" id="shape_141"/></g><g id="I688"><path d="M 846.1538461538462 1948.1250000000027L 807.6923076923077 1948.1250000000027M 846.1538461538462 1976.2500000000027L 846.1538461538462 1920.0000000000025" style="fill:none;stroke:#000000;stroke-width:6;stroke-linecap:round;stroke-miterlimit:10;" id="shape_142"/></g><g id="I673"><path d="M 961.5384615384617 2325.000000000003L 884.6153846153846 2325.000000000003M 961.5384615384617 2340.0000000000036L 961.5384615384617 2310.0000000000036" style="fill:none;stroke:#000000;stroke-width:6;stroke-linecap:round;stroke-miterlimit:10;" id="shape_143"/></g><g id="I603"><path d="M 884.6153846153846 1256.250000000001L 846.1538461538462 1256.250000000001M 884.6153846153846 1282.500000000001L 884.6153846153846 1230.000000000001" style="fill:none;stroke:#000000;stroke-width:6;stroke-linecap:round;stroke-miterlimit:10;" id="shape_144"/></g><g id="I543"><path d="M 1000 4109.999999999997L 961.5384615384617 4109.999999999997" style="fill:none;stroke:#000000;stroke-width:6;stroke-linecap:round;stroke-miterlimit:10;" id="shape_145"/></g><g id="I698"><path d="M 1000 1800.0000000000023L 961.5384615384617 1800.0000000000023" style="fill:none;stroke:#000000;stroke-width:6;stroke-linecap:round;stroke-miterlimit:10;" id="shape_146"/></g><g id="I742"><path d="M 1000 60L 961.5384615384617 60" style="fill:none;stroke:#000000;stroke-width:6;stroke-linecap:round;stroke-miterlimit:10;" id="shape_147"/></g><g id="I466"><path d="M 384.61538461538464 1139.62875366211L 346.1538461538462 1139.62875366211M 384.61538461538464 1526.9137573242203L 384.61538461538464 752.3437499999999" style="fill:none;stroke:#000000;stroke-width:6;stroke-linecap:round;stroke-miterlimit:10;" id="shape_148"/></g><g id="I536"><path d="M 1000 4049.9999999999977L 961.5384615384617 4049.9999999999977" style="fill:none;stroke:#000000;stroke-width:6;stroke-linecap:round;stroke-miterlimit:10;" id="shape_149"/></g><g id="I550"><path d="M 961.5384615384617 4244.999999999995L 923.0769230769232 4244.999999999995M 961.5384615384617 4259.999999999995L 961.5384615384617 4229.999999999996" style="fill:none;stroke:#000000;stroke-width:6;stroke-linecap:round;stroke-miterlimit:10;" id="shape_150"/></g><g id="I467"><path d="M 769.2307692307693 752.3437499999999L 384.61538461538464 752.3437499999999M 769.2307692307693 784.6874999999999L 769.2307692307693 719.9999999999999" style="fill:none;stroke:#000000;stroke-width:6;stroke-linecap:round;stroke-miterlimit:10;" id="shape_151"/></g><g id="I579"><path d="M 1000 3420.000000000003L 923.0769230769232 3420.000000000003" style="fill:none;stroke:#000000;stroke-width:6;stroke-linecap:round;stroke-miterlimit:10;" id="shape_152"/></g><g id="I586"><path d="M 923.0769230769232 3262.5000000000045L 884.6153846153846 3262.5000000000045M 923.0769230769232 3285.0000000000045L 923.0769230769232 3240.000000000005" style="fill:none;stroke:#000000;stroke-width:6;stroke-linecap:round;stroke-miterlimit:10;" id="shape_153"/></g><g id="I709"><path d="M 961.5384615384617 254.99999999999997L 615.3846153846155 254.99999999999997M 961.5384615384617 269.99999999999994L 961.5384615384617 239.99999999999997" style="fill:none;stroke:#000000;stroke-width:6;stroke-linecap:round;stroke-miterlimit:10;" id="shape_154"/></g><g id="I687"><path d="M 1000 1890.0000000000025L 961.5384615384617 1890.0000000000025" style="fill:none;stroke:#000000;stroke-width:6;stroke-linecap:round;stroke-miterlimit:10;" id="shape_155"/></g><g id="I562"><path d="M 807.6923076923077 3416.250000000003L 769.2307692307693 3416.250000000003M 807.6923076923077 3487.5000000000027L 807.6923076923077 3345.000000000004" style="fill:none;stroke:#000000;stroke-width:6;stroke-linecap:round;stroke-miterlimit:10;" id="shape_156"/></g><g id="I640"><path d="M 1000 1740.000000000002L 961.5384615384617 1740.000000000002" style="fill:none;stroke:#000000;stroke-width:6;stroke-linecap:round;stroke-miterlimit:10;" id="shape_157"/></g><g id="I682"><path d="M 1000 2220.000000000003L 961.5384615384617 2220.000000000003" style="fill:none;stroke:#000000;stroke-width:6;stroke-linecap:round;stroke-miterlimit:10;" id="shape_158"/></g><g id="I594"><path d="M 653.8461538461539 1055.5664062500005L 500 1055.5664062500005M 653.8461538461539 1091.1328125000007L 653.8461538461539 1020.0000000000003" style="fill:none;stroke:#000000;stroke-width:6;stroke-linecap:round;stroke-miterlimit:10;" id="shape_159"/></g><g id="I471"><path d="M 1000 779.9999999999999L 846.1538461538462 779.9999999999999" style="fill:none;stroke:#000000;stroke-width:6;stroke-linecap:round;stroke-miterlimit:10;" id="shape_160"/></g><g id="I702"><path d="M 1000 990.0000000000003L 961.5384615384617 990.0000000000003" style="fill:none;stroke:#000000;stroke-width:6;stroke-linecap:round;stroke-miterlimit:10;" id="shape_161"/></g><g id="I630"><path d="M 1000 1560.0000000000018L 961.5384615384617 1560.0000000000018" style="fill:none;stroke:#000000;stroke-width:6;stroke-linecap:round;stroke-miterlimit:10;" id="shape_162"/></g><g id="I515"><path d="M 1000 2910.000000000005L 961.5384615384617 2910.000000000005" style="fill:none;stroke:#000000;stroke-width:6;stroke-linecap:round;stroke-miterlimit:10;" id="shape_163"/></g><g id="I744"><path d="M 961.5384615384617 135L 923.0769230769232 135M 961.5384615384617 150L 961.5384615384617 120" style="fill:none;stroke:#000000;stroke-width:6;stroke-linecap:round;stroke-miterlimit:10;" id="shape_164"/></g><g id="I555"><path d="M 961.5384615384617 3675.000000000001L 923.0769230769232 3675.000000000001M 961.5384615384617 3690.000000000001L 961.5384615384617 3660.000000000001" style="fill:none;stroke:#000000;stroke-width:6;stroke-linecap:round;stroke-miterlimit:10;" id="shape_165"/></g><g id="I480"><path d="M 1000 870L 923.0769230769232 870" style="fill:none;stroke:#000000;stroke-width:6;stroke-linecap:round;stroke-miterlimit:10;" id="shape_166"/></g><g id="I647"><path d="M 692.3076923076924 2140.898437500003L 653.8461538461539 2140.898437500003M 692.3076923076924 2211.796875000003L 692.3076923076924 2070.0000000000027" style="fill:none;stroke:#000000;stroke-width:6;stroke-linecap:round;stroke-miterlimit:10;" id="shape_167"/></g><g id="I648"><path d="M 1000 2070.0000000000027L 692.3076923076924 2070.0000000000027" style="fill:none;stroke:#000000;stroke-width:6;stroke-linecap:round;stroke-miterlimit:10;" id="shape_168"/></g><g id="I511"><path d="M 923.0769230769232 2872.500000000005L 884.6153846153846 2872.500000000005M 923.0769230769232 2895.000000000005L 923.0769230769232 2850.000000000005" style="fill:none;stroke:#000000;stroke-width:6;stroke-linecap:round;stroke-miterlimit:10;" id="shape_169"/></g><g id="I636"><path d="M 1000 1650.0000000000018L 961.5384615384617 1650.0000000000018" style="fill:none;stroke:#000000;stroke-width:6;stroke-linecap:round;stroke-miterlimit:10;" id="shape_170"/></g><g id="I661"><path d="M 884.6153846153846 2520.0000000000045L 846.1538461538462 2520.0000000000045M 884.6153846153846 2565.0000000000045L 884.6153846153846 2475.000000000004" style="fill:none;stroke:#000000;stroke-width:6;stroke-linecap:round;stroke-miterlimit:10;" id="shape_171"/></g><g id="I738"><path d="M 1000 299.99999999999994L 653.8461538461539 299.99999999999994" style="fill:none;stroke:#000000;stroke-width:6;stroke-linecap:round;stroke-miterlimit:10;" id="shape_172"/></g><g id="I504"><path d="M 1000 3120.0000000000055L 961.5384615384617 3120.0000000000055" style="fill:none;stroke:#000000;stroke-width:6;stroke-linecap:round;stroke-miterlimit:10;" id="shape_173"/></g><g id="I693"><path d="M 961.5384615384617 2025.0000000000027L 923.0769230769232 2025.0000000000027M 961.5384615384617 2040.0000000000027L 961.5384615384617 2010.0000000000027" style="fill:none;stroke:#000000;stroke-width:6;stroke-linecap:round;stroke-miterlimit:10;" id="shape_174"/></g><g id="I617"><path d="M 884.6153846153846 1387.5000000000014L 769.2307692307693 1387.5000000000014M 884.6153846153846 1425.0000000000014L 884.6153846153846 1350.0000000000011" style="fill:none;stroke:#000000;stroke-width:6;stroke-linecap:round;stroke-miterlimit:10;" id="shape_175"/></g><g id="I541"><path d="M 961.5384615384617 4094.9999999999973L 846.1538461538462 4094.9999999999973M 961.5384615384617 4109.999999999997L 961.5384615384617 4079.9999999999973" style="fill:none;stroke:#000000;stroke-width:6;stroke-linecap:round;stroke-miterlimit:10;" id="shape_176"/></g><g id="I716"><path d="M 1000 389.99999999999994L 961.5384615384617 389.99999999999994" style="fill:none;stroke:#000000;stroke-width:6;stroke-linecap:round;stroke-miterlimit:10;" id="shape_177"/></g><g id="I568"><path d="M 923.0769230769232 3592.500000000002L 884.6153846153846 3592.500000000002M 923.0769230769232 3615.0000000000014L 923.0769230769232 3570.000000000002" style="fill:none;stroke:#000000;stroke-width:6;stroke-linecap:round;stroke-miterlimit:10;" id="shape_178"/></g><g id="I578"><path d="M 1000 3480.0000000000027L 961.5384615384617 3480.0000000000027" style="fill:none;stroke:#000000;stroke-width:6;stroke-linecap:round;stroke-miterlimit:10;" id="shape_179"/></g><g id="I534"><path d="M 961.5384615384617 4034.9999999999977L 923.0769230769232 4034.9999999999977M 961.5384615384617 4049.9999999999977L 961.5384615384617 4019.9999999999977" style="fill:none;stroke:#000000;stroke-width:6;stroke-linecap:round;stroke-miterlimit:10;" id="shape_180"/></g><g id="I601"><path d="M 846.1538461538462 1228.1250000000007L 807.6923076923077 1228.1250000000007M 846.1538461538462 1256.250000000001L 846.1538461538462 1200.000000000001" style="fill:none;stroke:#000000;stroke-width:6;stroke-linecap:round;stroke-miterlimit:10;" id="shape_181"/></g><g id="I528"><path d="M 807.6923076923077 4046.2499999999977L 769.2307692307693 4046.2499999999977M 807.6923076923077 4141.874999999996L 807.6923076923077 3950.6249999999986" style="fill:none;stroke:#000000;stroke-width:6;stroke-linecap:round;stroke-miterlimit:10;" id="shape_182"/></g><g id="I721"><path d="M 1000 479.99999999999994L 961.5384615384617 479.99999999999994" style="fill:none;stroke:#000000;stroke-width:6;stroke-linecap:round;stroke-miterlimit:10;" id="shape_183"/></g><g id="I604"><path d="M 1000 1230.000000000001L 884.6153846153846 1230.000000000001" style="fill:none;stroke:#000000;stroke-width:6;stroke-linecap:round;stroke-miterlimit:10;" id="shape_184"/></g><g id="I652"><path d="M 923.0769230769232 2152.500000000003L 884.6153846153846 2152.500000000003M 923.0769230769232 2175.000000000003L 923.0769230769232 2130.000000000003" style="fill:none;stroke:#000000;stroke-width:6;stroke-linecap:round;stroke-miterlimit:10;" id="shape_185"/></g><g id="I671"><path d="M 1000 2490.000000000004L 961.5384615384617 2490.000000000004" style="fill:none;stroke:#000000;stroke-width:6;stroke-linecap:round;stroke-miterlimit:10;" id="shape_186"/></g><g id="I723"><path d="M 1000 509.99999999999994L 807.6923076923077 509.99999999999994" style="fill:none;stroke:#000000;stroke-width:6;stroke-linecap:round;stroke-miterlimit:10;" id="shape_187"/></g><g id="I612"><path d="M 1000 1080.0000000000005L 961.5384615384617 1080.0000000000005" style="fill:none;stroke:#000000;stroke-width:6;stroke-linecap:round;stroke-miterlimit:10;" id="shape_188"/></g><g id="I741"><path d="M 961.5384615384617 75L 923.0769230769232 75M 961.5384615384617 90L 961.5384615384617 60" style="fill:none;stroke:#000000;stroke-width:6;stroke-linecap:round;stroke-miterlimit:10;" id="shape_189"/></g><g id="I493"><path d="M 961.5384615384617 2955.0000000000055L 769.2307692307693 2955.0000000000055M 961.5384615384617 2970.0000000000055L 961.5384615384617 2940.000000000005" style="fill:none;stroke:#000000;stroke-width:6;stroke-linecap:round;stroke-miterlimit:10;" id="shape_190"/></g><g id="I477"><path d="M 961.5384615384617 915.0000000000001L 923.0769230769232 915.0000000000001M 961.5384615384617 930.0000000000001L 961.5384615384617 900.0000000000001" style="fill:none;stroke:#000000;stroke-width:6;stroke-linecap:round;stroke-miterlimit:10;" id="shape_191"/></g><g id="I748"><path d="M 1000 0L 961.5384615384617 0" style="fill:none;stroke:#000000;stroke-width:6;stroke-linecap:round;stroke-miterlimit:10;" id="shape_192"/></g><g id="I627"><path d="M 923.0769230769232 1522.5000000000016L 807.6923076923077 1522.5000000000016M 923.0769230769232 1545.0000000000018L 923.0769230769232 1500.0000000000016" style="fill:none;stroke:#000000;stroke-width:6;stroke-linecap:round;stroke-miterlimit:10;" id="shape_193"/></g><g id="I615"><path d="M 538.4615384615386 1663.513183593752L 500 1663.513183593752M 538.4615384615386 1845.3076171875023L 538.4615384615386 1481.7187500000016" style="fill:none;stroke:#000000;stroke-width:6;stroke-linecap:round;stroke-miterlimit:10;" id="shape_194"/></g><g id="I502"><path d="M 1000 3090.0000000000055L 923.0769230769232 3090.0000000000055" style="fill:none;stroke:#000000;stroke-width:6;stroke-linecap:round;stroke-miterlimit:10;" id="shape_195"/></g><g id="I490"><path d="M 692.3076923076924 2825.039062500005L 576.9230769230769 2825.039062500005M 692.3076923076924 2905.0781250000055L 692.3076923076924 2745.0000000000045" style="fill:none;stroke:#000000;stroke-width:6;stroke-linecap:round;stroke-miterlimit:10;" id="shape_196"/></g><g id="I689"><path d="M 1000 1920.0000000000025L 846.1538461538462 1920.0000000000025" style="fill:none;stroke:#000000;stroke-width:6;stroke-linecap:round;stroke-miterlimit:10;" id="shape_197"/></g><g id="I654"><path d="M 961.5384615384617 2175.000000000003L 923.0769230769232 2175.000000000003M 961.5384615384617 2190.000000000003L 961.5384615384617 2160.000000000003" style="fill:none;stroke:#000000;stroke-width:6;stroke-linecap:round;stroke-miterlimit:10;" id="shape_198"/></g><g id="I521"><path d="M 692.3076923076924 3830.156249999999L 653.8461538461539 3830.156249999999M 692.3076923076924 3880.312499999999L 692.3076923076924 3780" style="fill:none;stroke:#000000;stroke-width:6;stroke-linecap:round;stroke-miterlimit:10;" id="shape_199"/></g><g id="I469"><path d="M 807.6923076923077 784.6874999999999L 769.2307692307693 784.6874999999999M 807.6923076923077 819.3749999999999L 807.6923076923077 749.9999999999999" style="fill:none;stroke:#000000;stroke-width:6;stroke-linecap:round;stroke-miterlimit:10;" id="shape_200"/></g><g id="I505"><path d="M 1000 3150.000000000006L 961.5384615384617 3150.000000000006" style="fill:none;stroke:#000000;stroke-width:6;stroke-linecap:round;stroke-miterlimit:10;" id="shape_201"/></g><g id="I680"><path d="M 1000 2430.0000000000036L 961.5384615384617 2430.0000000000036" style="fill:none;stroke:#000000;stroke-width:6;stroke-linecap:round;stroke-miterlimit:10;" id="shape_202"/></g><g id="I457"><g id="shape_203"><path d="M 269.2307692307693 647.0226287841801L 230.7692307692308 647.0226287841801" style="fill:none;stroke:#000000;stroke-width:6;stroke-linecap:round;stroke-miterlimit:10;"/><circle cx="269.2307692307693" cy="647.0226287841801" r="2" style="fill:#000000;stroke:#000000;stroke-width:6;stroke-linecap:round;stroke-miterlimit:10;"/></g></g><g id="I592"><path d="M 1000 2700.0000000000045L 538.4615384615386 2700.0000000000045" style="fill:none;stroke:#000000;stroke-width:6;stroke-linecap:round;stroke-miterlimit:10;" id="shape_204"/></g><g id="I583"><path d="M 846.1538461538462 3208.1250000000055L 769.2307692307693 3208.1250000000055M 846.1538461538462 3236.250000000005L 846.1538461538462 3180.0000000000055" style="fill:none;stroke:#000000;stroke-width:6;stroke-linecap:round;stroke-miterlimit:10;" id="shape_205"/></g><g id="I510"><path d="M 1000 2820.000000000005L 884.6153846153846 2820.000000000005" style="fill:none;stroke:#000000;stroke-width:6;stroke-linecap:round;stroke-miterlimit:10;" id="shape_206"/></g><g id="I566"><path d="M 1000 3510.0000000000023L 961.5384615384617 3510.0000000000023" style="fill:none;stroke:#000000;stroke-width:6;stroke-linecap:round;stroke-miterlimit:10;" id="shape_207"/></g><g id="I570"><path d="M 1000 3600.000000000002L 961.5384615384617 3600.000000000002" style="fill:none;stroke:#000000;stroke-width:6;stroke-linecap:round;stroke-miterlimit:10;" id="shape_208"/></g><g id="I571"><path d="M 1000 3630.0000000000014L 961.5384615384617 3630.0000000000014" style="fill:none;stroke:#000000;stroke-width:6;stroke-linecap:round;stroke-miterlimit:10;" id="shape_209"/></g><g id="I595"><path d="M 1000 1020.0000000000003L 653.8461538461539 1020.0000000000003" style="fill:none;stroke:#000000;stroke-width:6;stroke-linecap:round;stroke-miterlimit:10;" id="shape_210"/></g><g id="I499"><path d="M 1000 3030.0000000000055L 846.1538461538462 3030.0000000000055" style="fill:none;stroke:#000000;stroke-width:6;stroke-linecap:round;stroke-miterlimit:10;" id="shape_211"/></g><g id="I517"><path d="M 1000 2730.0000000000045L 961.5384615384617 2730.0000000000045" style="fill:none;stroke:#000000;stroke-width:6;stroke-linecap:round;stroke-miterlimit:10;" id="shape_212"/></g><g id="I532"><path d="M 923.0769230769232 4012.4999999999977L 884.6153846153846 4012.4999999999977M 923.0769230769232 4034.9999999999977L 923.0769230769232 3989.999999999998" style="fill:none;stroke:#000000;stroke-width:6;stroke-linecap:round;stroke-miterlimit:10;" id="shape_213"/></g><g id="I710"><path d="M 1000 239.99999999999997L 961.5384615384617 239.99999999999997" style="fill:none;stroke:#000000;stroke-width:6;stroke-linecap:round;stroke-miterlimit:10;" id="shape_214"/></g><g id="I746"><path d="M 1000 150L 961.5384615384617 150" style="fill:none;stroke:#000000;stroke-width:6;stroke-linecap:round;stroke-miterlimit:10;" id="shape_215"/></g><g id="I573"><path d="M 884.6153846153846 3416.250000000003L 846.1538461538462 3416.250000000003M 884.6153846153846 3442.500000000003L 884.6153846153846 3390.0000000000036" style="fill:none;stroke:#000000;stroke-width:6;stroke-linecap:round;stroke-miterlimit:10;" id="shape_216"/></g><g id="I658"><path d="M 807.6923076923077 2359.687500000004L 769.2307692307693 2359.687500000004M 807.6923076923077 2439.375000000004L 807.6923076923077 2280.0000000000036" style="fill:none;stroke:#000000;stroke-width:6;stroke-linecap:round;stroke-miterlimit:10;" id="shape_217"/></g><g id="I598"><path d="M 769.2307692307693 1169.531250000001L 730.7692307692308 1169.531250000001M 769.2307692307693 1199.062500000001L 769.2307692307693 1140.0000000000007" style="fill:none;stroke:#000000;stroke-width:6;stroke-linecap:round;stroke-miterlimit:10;" id="shape_218"/></g><g id="I695"><path d="M 1000 2040.0000000000027L 961.5384615384617 2040.0000000000027" style="fill:none;stroke:#000000;stroke-width:6;stroke-linecap:round;stroke-miterlimit:10;" id="shape_219"/></g><g id="I470"><path d="M 846.1538461538462 819.3749999999999L 807.6923076923077 819.3749999999999M 846.1538461538462 858.7499999999999L 846.1538461538462 779.9999999999999" style="fill:none;stroke:#000000;stroke-width:6;stroke-linecap:round;stroke-miterlimit:10;" id="shape_220"/></g><g id="I644"><path d="M 1000 1770.000000000002L 576.9230769230769 1770.000000000002" style="fill:none;stroke:#000000;stroke-width:6;stroke-linecap:round;stroke-miterlimit:10;" id="shape_221"/></g><g id="I664"><path d="M 1000 2520.000000000004L 961.5384615384617 2520.000000000004" style="fill:none;stroke:#000000;stroke-width:6;stroke-linecap:round;stroke-miterlimit:10;" id="shape_222"/></g><g id="I684"><path d="M 807.6923076923077 1911.5625000000027L 653.8461538461539 1911.5625000000027M 807.6923076923077 1948.1250000000027L 807.6923076923077 1875.0000000000025" style="fill:none;stroke:#000000;stroke-width:6;stroke-linecap:round;stroke-miterlimit:10;" id="shape_223"/></g><g id="I643"><path d="M 576.9230769230769 1845.3076171875023L 538.4615384615386 1845.3076171875023M 576.9230769230769 1920.6152343750025L 576.9230769230769 1770.000000000002" style="fill:none;stroke:#000000;stroke-width:6;stroke-linecap:round;stroke-miterlimit:10;" id="shape_224"/></g><g id="I678"><path d="M 961.5384615384617 2415.000000000004L 923.0769230769232 2415.000000000004M 961.5384615384617 2430.0000000000036L 961.5384615384617 2400.0000000000036" style="fill:none;stroke:#000000;stroke-width:6;stroke-linecap:round;stroke-miterlimit:10;" id="shape_225"/></g><g id="I564"><path d="M 884.6153846153846 3558.750000000002L 846.1538461538462 3558.750000000002M 884.6153846153846 3592.500000000002L 884.6153846153846 3525.0000000000023" style="fill:none;stroke:#000000;stroke-width:6;stroke-linecap:round;stroke-miterlimit:10;" id="shape_226"/></g><g id="I519"><path d="M 615.3846153846155 3539.882812500002L 576.9230769230769 3539.882812500002M 615.3846153846155 3767.5781249999995L 615.3846153846155 3312.1875000000045" style="fill:none;stroke:#000000;stroke-width:6;stroke-linecap:round;stroke-miterlimit:10;" id="shape_227"/></g><g id="I703"><path d="M 538.4615384615386 154.41650390624997L 346.1538461538462 154.41650390624997M 538.4615384615386 248.83300781249997L 538.4615384615386 60" style="fill:none;stroke:#000000;stroke-width:6;stroke-linecap:round;stroke-miterlimit:10;" id="shape_228"/></g><g id="I554"><path d="M 923.0769230769232 3705.000000000001L 653.8461538461539 3705.000000000001M 923.0769230769232 3735.0000000000005L 923.0769230769232 3675.000000000001" style="fill:none;stroke:#000000;stroke-width:6;stroke-linecap:round;stroke-miterlimit:10;" id="shape_229"/></g><g id="I663"><path d="M 961.5384615384617 2535.000000000004L 923.0769230769232 2535.000000000004M 961.5384615384617 2550.000000000004L 961.5384615384617 2520.000000000004" style="fill:none;stroke:#000000;stroke-width:6;stroke-linecap:round;stroke-miterlimit:10;" id="shape_230"/></g><g id="I488"><path d="M 538.4615384615386 2941.230468750004L 500 2941.230468750004M 538.4615384615386 3182.460937500003L 538.4615384615386 2700.0000000000045" style="fill:none;stroke:#000000;stroke-width:6;stroke-linecap:round;stroke-miterlimit:10;" id="shape_231"/></g><g id="I711"><path d="M 1000 269.99999999999994L 961.5384615384617 269.99999999999994" style="fill:none;stroke:#000000;stroke-width:6;stroke-linecap:round;stroke-miterlimit:10;" id="shape_232"/></g><g id="I0"><g id="shape_233"><path d="M 76.92307692307693 647.0226287841801L 38.46153846153847 647.0226287841801" style="fill:none;stroke:#000000;stroke-width:6;stroke-linecap:round;stroke-miterlimit:10;"/><circle cx="76.92307692307693" cy="647.0226287841801" r="2" style="fill:#000000;stroke:#000000;stroke-width:6;stroke-linecap:round;stroke-miterlimit:10;"/></g></g><g id="I608"><path d="M 1000 1290.0000000000011L 961.5384615384617 1290.0000000000011" style="fill:none;stroke:#000000;stroke-width:6;stroke-linecap:round;stroke-miterlimit:10;" id="shape_234"/></g><g id="I713"><path d="M 692.3076923076924 400.66406249999994L 653.8461538461539 400.66406249999994M 692.3076923076924 456.32812499999994L 692.3076923076924 344.99999999999994" style="fill:none;stroke:#000000;stroke-width:6;stroke-linecap:round;stroke-miterlimit:10;" id="shape_235"/></g><g id="I651"><path d="M 1000 2100.000000000003L 884.6153846153846 2100.000000000003" style="fill:none;stroke:#000000;stroke-width:6;stroke-linecap:round;stroke-miterlimit:10;" id="shape_236"/></g><g id="I485"><path d="M 961.5384615384617 2655.0000000000045L 500 2655.0000000000045M 961.5384615384617 2670.0000000000045L 961.5384615384617 2640.0000000000045" style="fill:none;stroke:#000000;stroke-width:6;stroke-linecap:round;stroke-miterlimit:10;" id="shape_237"/></g><g id="I455"><g id="shape_238"><path d="M 192.30769230769232 647.0226287841801L 153.84615384615387 647.0226287841801" style="fill:none;stroke:#000000;stroke-width:6;stroke-linecap:round;stroke-miterlimit:10;"/><circle cx="192.30769230769232" cy="647.0226287841801" r="2" style="fill:#000000;stroke:#000000;stroke-width:6;stroke-linecap:round;stroke-miterlimit:10;"/></g></g><g id="I621"><path d="M 1000 1410.0000000000014L 961.5384615384617 1410.0000000000014" style="fill:none;stroke:#000000;stroke-width:6;stroke-linecap:round;stroke-miterlimit:10;" id="shape_239"/></g><g id="I559"><path d="M 1000 3720.0000000000005L 961.5384615384617 3720.0000000000005" style="fill:none;stroke:#000000;stroke-width:6;stroke-linecap:round;stroke-miterlimit:10;" id="shape_240"/></g><g id="I635"><path d="M 1000 1620.0000000000018L 961.5384615384617 1620.0000000000018" style="fill:none;stroke:#000000;stroke-width:6;stroke-linecap:round;stroke-miterlimit:10;" id="shape_241"/></g><g id="I632"><path d="M 846.1538461538462 1629.3750000000016L 807.6923076923077 1629.3750000000016M 846.1538461538462 1668.750000000002L 846.1538461538462 1590.0000000000016" style="fill:none;stroke:#000000;stroke-width:6;stroke-linecap:round;stroke-miterlimit:10;" id="shape_242"/></g><g id="I589"><path d="M 1000 3270.0000000000045L 961.5384615384617 3270.0000000000045" style="fill:none;stroke:#000000;stroke-width:6;stroke-linecap:round;stroke-miterlimit:10;" id="shape_243"/></g><g id="I590"><path d="M 1000 3300.0000000000045L 961.5384615384617 3300.0000000000045" style="fill:none;stroke:#000000;stroke-width:6;stroke-linecap:round;stroke-miterlimit:10;" id="shape_244"/></g><g id="I552"><path d="M 1000 4259.999999999995L 961.5384615384617 4259.999999999995" style="fill:none;stroke:#000000;stroke-width:6;stroke-linecap:round;stroke-miterlimit:10;" id="shape_245"/></g><g id="I734"><path d="M 1000 599.9999999999999L 884.6153846153846 599.9999999999999" style="fill:none;stroke:#000000;stroke-width:6;stroke-linecap:round;stroke-miterlimit:10;" id="shape_246"/></g><g id="I548"><path d="M 923.0769230769232 4222.499999999996L 884.6153846153846 4222.499999999996M 923.0769230769232 4244.999999999995L 923.0769230769232 4199.999999999996" style="fill:none;stroke:#000000;stroke-width:6;stroke-linecap:round;stroke-miterlimit:10;" id="shape_247"/></g><g id="I639"><path d="M 1000 1710.000000000002L 961.5384615384617 1710.000000000002" style="fill:none;stroke:#000000;stroke-width:6;stroke-linecap:round;stroke-miterlimit:10;" id="shape_248"/></g><g id="I605"><path d="M 923.0769230769232 1282.500000000001L 884.6153846153846 1282.500000000001M 923.0769230769232 1305.0000000000011L 923.0769230769232 1260.000000000001" style="fill:none;stroke:#000000;stroke-width:6;stroke-linecap:round;stroke-miterlimit:10;" id="shape_249"/></g><g id="I731"><path d="M 961.5384615384617 674.9999999999999L 923.0769230769232 674.9999999999999M 961.5384615384617 689.9999999999999L 961.5384615384617 659.9999999999999" style="fill:none;stroke:#000000;stroke-width:6;stroke-linecap:round;stroke-miterlimit:10;" id="shape_250"/></g><g id="I530"><path d="M 884.6153846153846 3986.249999999998L 846.1538461538462 3986.249999999998M 884.6153846153846 4012.4999999999977L 884.6153846153846 3959.999999999998" style="fill:none;stroke:#000000;stroke-width:6;stroke-linecap:round;stroke-miterlimit:10;" id="shape_251"/></g><g id="I526"><path d="M 1000 3839.9999999999995L 961.5384615384617 3839.9999999999995" style="fill:none;stroke:#000000;stroke-width:6;stroke-linecap:round;stroke-miterlimit:10;" id="shape_252"/></g><g id="I613"><path d="M 1000 1110.0000000000007L 961.5384615384617 1110.0000000000007" style="fill:none;stroke:#000000;stroke-width:6;stroke-linecap:round;stroke-miterlimit:10;" id="shape_253"/></g><g id="I743"><path d="M 1000 90L 961.5384615384617 90" style="fill:none;stroke:#000000;stroke-width:6;stroke-linecap:round;stroke-miterlimit:10;" id="shape_254"/></g><g id="I641"><path d="M 1000 1680.0000000000018L 923.0769230769232 1680.0000000000018" style="fill:none;stroke:#000000;stroke-width:6;stroke-linecap:round;stroke-miterlimit:10;" id="shape_255"/></g><g id="I569"><path d="M 961.5384615384617 3615.0000000000014L 923.0769230769232 3615.0000000000014M 961.5384615384617 3630.0000000000014L 961.5384615384617 3600.000000000002" style="fill:none;stroke:#000000;stroke-width:6;stroke-linecap:round;stroke-miterlimit:10;" id="shape_256"/></g><g id="I497"><path d="M 1000 3000.0000000000055L 807.6923076923077 3000.0000000000055" style="fill:none;stroke:#000000;stroke-width:6;stroke-linecap:round;stroke-miterlimit:10;" id="shape_257"/></g><g id="I690"><path d="M 884.6153846153846 1976.2500000000027L 846.1538461538462 1976.2500000000027M 884.6153846153846 2002.5000000000027L 884.6153846153846 1950.0000000000025" style="fill:none;stroke:#000000;stroke-width:6;stroke-linecap:round;stroke-miterlimit:10;" id="shape_258"/></g><g id="I538"><path d="M 1000 3899.999999999999L 961.5384615384617 3899.999999999999" style="fill:none;stroke:#000000;stroke-width:6;stroke-linecap:round;stroke-miterlimit:10;" id="shape_259"/></g><g id="I728"><path d="M 884.6153846153846 626.2499999999999L 846.1538461538462 626.2499999999999M 884.6153846153846 652.4999999999999L 884.6153846153846 599.9999999999999" style="fill:none;stroke:#000000;stroke-width:6;stroke-linecap:round;stroke-miterlimit:10;" id="shape_260"/></g><g id="I666"><path d="M 961.5384615384617 2595.0000000000045L 923.0769230769232 2595.0000000000045M 961.5384615384617 2610.000000000004L 961.5384615384617 2580.000000000004" style="fill:none;stroke:#000000;stroke-width:6;stroke-linecap:round;stroke-miterlimit:10;" id="shape_261"/></g><g id="I681"><path d="M 961.5384615384617 2235.0000000000036L 769.2307692307693 2235.0000000000036M 961.5384615384617 2250.000000000003L 961.5384615384617 2220.000000000003" style="fill:none;stroke:#000000;stroke-width:6;stroke-linecap:round;stroke-miterlimit:10;" id="shape_262"/></g><g id="I686"><path d="M 1000 1860.0000000000023L 961.5384615384617 1860.0000000000023" style="fill:none;stroke:#000000;stroke-width:6;stroke-linecap:round;stroke-miterlimit:10;" id="shape_263"/></g><g id="I646"><path d="M 653.8461538461539 2026.230468750003L 615.3846153846155 2026.230468750003M 653.8461538461539 2140.898437500003L 653.8461538461539 1911.5625000000027" style="fill:none;stroke:#000000;stroke-width:6;stroke-linecap:round;stroke-miterlimit:10;" id="shape_264"/></g><g id="I607"><path d="M 961.5384615384617 1305.0000000000011L 923.0769230769232 1305.0000000000011M 961.5384615384617 1320.0000000000011L 961.5384615384617 1290.0000000000011" style="fill:none;stroke:#000000;stroke-width:6;stroke-linecap:round;stroke-miterlimit:10;" id="shape_265"/></g><g id="I558"><path d="M 961.5384615384617 3735.0000000000005L 923.0769230769232 3735.0000000000005M 961.5384615384617 3750.0000000000005L 961.5384615384617 3720.0000000000005" style="fill:none;stroke:#000000;stroke-width:6;stroke-linecap:round;stroke-miterlimit:10;" id="shape_266"/></g><g id="I697"><path d="M 961.5384615384617 1815.0000000000025L 615.3846153846155 1815.0000000000025M 961.5384615384617 1830.0000000000023L 961.5384615384617 1800.0000000000023" style="fill:none;stroke:#000000;stroke-width:6;stroke-linecap:round;stroke-miterlimit:10;" id="shape_267"/></g><g id="I486"><path d="M 1000 2640.0000000000045L 961.5384615384617 2640.0000000000045" style="fill:none;stroke:#000000;stroke-width:6;stroke-linecap:round;stroke-miterlimit:10;" id="shape_268"/></g><g id="I513"><path d="M 961.5384615384617 2895.000000000005L 923.0769230769232 2895.000000000005M 961.5384615384617 2910.000000000005L 961.5384615384617 2880.000000000005" style="fill:none;stroke:#000000;stroke-width:6;stroke-linecap:round;stroke-miterlimit:10;" id="shape_269"/></g><g id="I676"><path d="M 923.0769230769232 2392.5000000000036L 884.6153846153846 2392.5000000000036M 923.0769230769232 2415.000000000004L 923.0769230769232 2370.0000000000036" style="fill:none;stroke:#000000;stroke-width:6;stroke-linecap:round;stroke-miterlimit:10;" id="shape_270"/></g><g id="I544"><path d="M 884.6153846153846 4188.749999999996L 846.1538461538462 4188.749999999996M 884.6153846153846 4222.499999999996L 884.6153846153846 4154.999999999996" style="fill:none;stroke:#000000;stroke-width:6;stroke-linecap:round;stroke-miterlimit:10;" id="shape_271"/></g><g id="I588"><path d="M 961.5384615384617 3285.0000000000045L 923.0769230769232 3285.0000000000045M 961.5384615384617 3300.0000000000045L 961.5384615384617 3270.0000000000045" style="fill:none;stroke:#000000;stroke-width:6;stroke-linecap:round;stroke-miterlimit:10;" id="shape_272"/></g><g id="I705"><path d="M 961.5384615384617 194.99999999999997L 576.9230769230769 194.99999999999997M 961.5384615384617 209.99999999999997L 961.5384615384617 180" style="fill:none;stroke:#000000;stroke-width:6;stroke-linecap:round;stroke-miterlimit:10;" id="shape_273"/></g><g id="I611"><path d="M 961.5384615384617 1095.0000000000007L 730.7692307692308 1095.0000000000007M 961.5384615384617 1110.0000000000007L 961.5384615384617 1080.0000000000005" style="fill:none;stroke:#000000;stroke-width:6;stroke-linecap:round;stroke-miterlimit:10;" id="shape_274"/></g><g id="I618"><path d="M 923.0769230769232 1425.0000000000014L 884.6153846153846 1425.0000000000014M 923.0769230769232 1455.0000000000016L 923.0769230769232 1395.0000000000014" style="fill:none;stroke:#000000;stroke-width:6;stroke-linecap:round;stroke-miterlimit:10;" id="shape_275"/></g><g id="I483"><path d="M 461.5384615384616 2078.8275146484402L 423.0769230769231 2078.8275146484402M 461.5384615384616 2798.1152343750045L 461.5384615384616 1359.5397949218761" style="fill:none;stroke:#000000;stroke-width:6;stroke-linecap:round;stroke-miterlimit:10;" id="shape_276"/></g><g id="I546"><path d="M 1000 4139.999999999996L 961.5384615384617 4139.999999999996" style="fill:none;stroke:#000000;stroke-width:6;stroke-linecap:round;stroke-miterlimit:10;" id="shape_277"/></g><g id="I529"><path d="M 846.1538461538462 3950.6249999999986L 807.6923076923077 3950.6249999999986M 846.1538461538462 3986.249999999998L 846.1538461538462 3914.9999999999986" style="fill:none;stroke:#000000;stroke-width:6;stroke-linecap:round;stroke-miterlimit:10;" id="shape_278"/></g><g id="I628"><path d="M 961.5384615384617 1545.0000000000018L 923.0769230769232 1545.0000000000018M 961.5384615384617 1560.0000000000018L 961.5384615384617 1530.0000000000016" style="fill:none;stroke:#000000;stroke-width:6;stroke-linecap:round;stroke-miterlimit:10;" id="shape_279"/></g><g id="I494"><path d="M 1000 2940.000000000005L 961.5384615384617 2940.000000000005" style="fill:none;stroke:#000000;stroke-width:6;stroke-linecap:round;stroke-miterlimit:10;" id="shape_280"/></g><g id="I718"><path d="M 769.2307692307693 507.65624999999994L 730.7692307692308 507.65624999999994M 769.2307692307693 550.3124999999999L 769.2307692307693 465" style="fill:none;stroke:#000000;stroke-width:6;stroke-linecap:round;stroke-miterlimit:10;" id="shape_281"/></g><g id="I656"><path d="M 1000 2190.000000000003L 961.5384615384617 2190.000000000003" style="fill:none;stroke:#000000;stroke-width:6;stroke-linecap:round;stroke-miterlimit:10;" id="shape_282"/></g><g id="I708"><path d="M 615.3846153846155 302.66601562499994L 576.9230769230769 302.66601562499994M 615.3846153846155 350.33203124999994L 615.3846153846155 254.99999999999997" style="fill:none;stroke:#000000;stroke-width:6;stroke-linecap:round;stroke-miterlimit:10;" id="shape_283"/></g><g id="I509"><path d="M 884.6153846153846 2846.250000000005L 846.1538461538462 2846.250000000005M 884.6153846153846 2872.500000000005L 884.6153846153846 2820.000000000005" style="fill:none;stroke:#000000;stroke-width:6;stroke-linecap:round;stroke-miterlimit:10;" id="shape_284"/></g><g id="I576"><path d="M 961.5384615384617 3465.0000000000027L 923.0769230769232 3465.0000000000027M 961.5384615384617 3480.0000000000027L 961.5384615384617 3450.000000000003" style="fill:none;stroke:#000000;stroke-width:6;stroke-linecap:round;stroke-miterlimit:10;" id="shape_285"/></g><g id="I736"><path d="M 1000 329.99999999999994L 961.5384615384617 329.99999999999994" style="fill:none;stroke:#000000;stroke-width:6;stroke-linecap:round;stroke-miterlimit:10;" id="shape_286"/></g><g id="I623"><path d="M 1000 1440.0000000000014L 961.5384615384617 1440.0000000000014" style="fill:none;stroke:#000000;stroke-width:6;stroke-linecap:round;stroke-miterlimit:10;" id="shape_287"/></g><g id="I474"><path d="M 1000 809.9999999999999L 961.5384615384617 809.9999999999999" style="fill:none;stroke:#000000;stroke-width:6;stroke-linecap:round;stroke-miterlimit:10;" id="shape_288"/></g><g id="I593"><path d="M 500 1359.5397949218761L 461.5384615384616 1359.5397949218761M 500 1663.513183593752L 500 1055.5664062500005" style="fill:none;stroke:#000000;stroke-width:6;stroke-linecap:round;stroke-miterlimit:10;" id="shape_289"/></g><g id="I454"><g id="shape_290"><path d="M 153.84615384615387 647.0226287841801L 115.3846153846154 647.0226287841801" style="fill:none;stroke:#000000;stroke-width:6;stroke-linecap:round;stroke-miterlimit:10;"/><circle cx="153.84615384615387" cy="647.0226287841801" r="2" style="fill:#000000;stroke:#000000;stroke-width:6;stroke-linecap:round;stroke-miterlimit:10;"/></g></g><g id="I475"><path d="M 1000 839.9999999999999L 961.5384615384617 839.9999999999999" style="fill:none;stroke:#000000;stroke-width:6;stroke-linecap:round;stroke-miterlimit:10;" id="shape_291"/></g></g><g id="container_5"/><g id="container_6"><path d="M 1010 -15L 1010 4274.999999999995" style="fill:none;stroke:#000000;stroke-linecap:butt;stroke-miterlimit:10;" id="shape_292"/><text id="text" transform="matrix(0.0000,-1.0000,1.0000,0.0000,1016.5974,-16.50)" fill="#000000" style="font-size:20px;font-family:Arial;">0</text><path d="M 1382.340425531915 -15L 1382.340425531915 4274.999999999995" style="fill:none;stroke:#000000;stroke-linecap:butt;stroke-miterlimit:10;stroke-dasharray:10,10;" id="shape_293"/><text id="text_1" transform="matrix(0.0000,-1.0000,1.0000,0.0000,1388.9378,-16.50)" fill="#000000" style="font-size:20px;font-family:Arial;">15</text><path d="M 1357.5177304964539 -15L 1357.5177304964539 4274.999999999995" style="fill:none;stroke:#000000;stroke-linecap:butt;stroke-miterlimit:10;stroke-dasharray:10,10;" id="shape_294"/><text id="text_2" transform="matrix(0.0000,-1.0000,1.0000,0.0000,1364.1152,-16.50)" fill="#000000" style="font-size:20px;font-family:Arial;">14</text><path d="M 1332.6950354609928 -15L 1332.6950354609928 4274.999999999995" style="fill:none;stroke:#000000;stroke-linecap:butt;stroke-miterlimit:10;stroke-dasharray:10,10;" id="shape_295"/><text id="text_3" transform="matrix(0.0000,-1.0000,1.0000,0.0000,1339.2925,-16.50)" fill="#000000" style="font-size:20px;font-family:Arial;">13</text><path d="M 1307.872340425532 -15L 1307.872340425532 4274.999999999995" style="fill:none;stroke:#000000;stroke-linecap:butt;stroke-miterlimit:10;stroke-dasharray:10,10;" id="shape_296"/><text id="text_4" transform="matrix(0.0000,-1.0000,1.0000,0.0000,1314.4698,-16.50)" fill="#000000" style="font-size:20px;font-family:Arial;">12</text><path d="M 1283.049645390071 -15L 1283.049645390071 4274.999999999995" style="fill:none;stroke:#000000;stroke-linecap:butt;stroke-miterlimit:10;stroke-dasharray:10,10;" id="shape_297"/><text id="text_5" transform="matrix(0.0000,-1.0000,1.0000,0.0000,1289.6471,-16.50)" fill="#000000" style="font-size:20px;font-family:Arial;">11</text><path d="M 1258.22695035461 -15L 1258.22695035461 4274.999999999995" style="fill:none;stroke:#000000;stroke-linecap:butt;stroke-miterlimit:10;" id="shape_298"/><text id="text_6" transform="matrix(0.0000,-1.0000,1.0000,0.0000,1264.8244,-16.50)" fill="#000000" style="font-size:20px;font-family:Arial;">10</text><path d="M 1233.404255319149 -15L 1233.404255319149 4274.999999999995" style="fill:none;stroke:#000000;stroke-linecap:butt;stroke-miterlimit:10;stroke-dasharray:10,10;" id="shape_299"/><text id="text_7" transform="matrix(0.0000,-1.0000,1.0000,0.0000,1240.0017,-16.50)" fill="#000000" style="font-size:20px;font-family:Arial;">9</text><path d="M 1208.5815602836878 -15L 1208.5815602836878 4274.999999999995" style="fill:none;stroke:#000000;stroke-linecap:butt;stroke-miterlimit:10;stroke-dasharray:10,10;" id="shape_300"/><text id="text_8" transform="matrix(0.0000,-1.0000,1.0000,0.0000,1215.1790,-16.50)" fill="#000000" style="font-size:20px;font-family:Arial;">8</text><path d="M 1183.758865248227 -15L 1183.758865248227 4274.999999999995" style="fill:none;stroke:#000000;stroke-linecap:butt;stroke-miterlimit:10;stroke-dasharray:10,10;" id="shape_301"/><text id="text_9" transform="matrix(0.0000,-1.0000,1.0000,0.0000,1190.3563,-16.50)" fill="#000000" style="font-size:20px;font-family:Arial;">7</text><path d="M 1158.936170212766 -15L 1158.936170212766 4274.999999999995" style="fill:none;stroke:#000000;stroke-linecap:butt;stroke-miterlimit:10;stroke-dasharray:10,10;" id="shape_302"/><text id="text_10" transform="matrix(0.0000,-1.0000,1.0000,0.0000,1165.5336,-16.50)" fill="#000000" style="font-size:20px;font-family:Arial;">6</text><path d="M 1134.113475177305 -15L 1134.113475177305 4274.999999999995" style="fill:none;stroke:#000000;stroke-linecap:butt;stroke-miterlimit:10;stroke-dasharray:10,10;" id="shape_303"/><text id="text_11" transform="matrix(0.0000,-1.0000,1.0000,0.0000,1140.7109,-16.50)" fill="#000000" style="font-size:20px;font-family:Arial;">5</text><path d="M 1109.290780141844 -15L 1109.290780141844 4274.999999999995" style="fill:none;stroke:#000000;stroke-linecap:butt;stroke-miterlimit:10;stroke-dasharray:10,10;" id="shape_304"/><text id="text_12" transform="matrix(0.0000,-1.0000,1.0000,0.0000,1115.8882,-16.50)" fill="#000000" style="font-size:20px;font-family:Arial;">4</text><path d="M 1084.468085106383 -15L 1084.468085106383 4274.999999999995" style="fill:none;stroke:#000000;stroke-linecap:butt;stroke-miterlimit:10;stroke-dasharray:10,10;" id="shape_305"/><text id="text_13" transform="matrix(0.0000,-1.0000,1.0000,0.0000,1091.0655,-16.50)" fill="#000000" style="font-size:20px;font-family:Arial;">3</text><path d="M 1059.645390070922 -15L 1059.645390070922 4274.999999999995" style="fill:none;stroke:#000000;stroke-linecap:butt;stroke-miterlimit:10;stroke-dasharray:10,10;" id="shape_306"/><text id="text_14" transform="matrix(0.0000,-1.0000,1.0000,0.0000,1066.2428,-16.50)" fill="#000000" style="font-size:20px;font-family:Arial;">2</text><path d="M 1034.822695035461 -15L 1034.822695035461 4274.999999999995" style="fill:none;stroke:#000000;stroke-linecap:butt;stroke-miterlimit:10;stroke-dasharray:10,10;" id="shape_307"/><text id="text_15" transform="matrix(0.0000,-1.0000,1.0000,0.0000,1041.4201,-16.50)" fill="#000000" style="font-size:20px;font-family:Arial;">1</text><g id="container_7" transform="matrix(1.0000,0.0000,0.0000,1.0000,1010.0000,0.00)"><rect x="0" y="-13.500000000000002" width="220.92198581560282" height="27.000000000000004" style="fill:#3e95ff;stroke:none;" id="shape_308"/></g><g id="container_8" transform="matrix(1.0000,0.0000,0.0000,1.0000,1010.0000,780.00)"><rect x="0" y="-13.500000000000002" width="307.8014184397163" height="27.000000000000004" style="fill:#3e95ff;stroke:none;" id="shape_309"/></g><g id="container_9" transform="matrix(1.0000,0.0000,0.0000,1.0000,1010.0000,2250.00)"><rect x="0" y="-13.500000000000002" width="350" height="27.000000000000004" style="fill:#3e95ff;stroke:none;" id="shape_310"/></g><g id="container_10" transform="matrix(1.0000,0.0000,0.0000,1.0000,1010.0000,3600.00)"><rect x="0" y="-13.500000000000002" width="156.38297872340425" height="27.000000000000004" style="fill:#3e95ff;stroke:none;" id="shape_311"/></g><g id="container_11" transform="matrix(1.0000,0.0000,0.0000,1.0000,1010.0000,90.00)"><rect x="0" y="-13.500000000000002" width="84.39716312056737" height="27.000000000000004" style="fill:#3e95ff;stroke:none;" id="shape_312"/></g><g id="container_12" transform="matrix(1.0000,0.0000,0.0000,1.0000,1010.0000,3930.00)"><rect x="0" y="-13.500000000000002" width="166.31205673758865" height="27.000000000000004" style="fill:#3e95ff;stroke:none;" id="shape_313"/></g><g id="container_13" transform="matrix(1.0000,0.0000,0.0000,1.0000,1010.0000,2100.00)"><rect x="0" y="-13.500000000000002" width="52.12765957446808" height="27.000000000000004" style="fill:#3e95ff;stroke:none;" id="shape_314"/></g><g id="container_14" transform="matrix(1.0000,0.0000,0.0000,1.0000,1010.0000,3780.00)"><rect x="0" y="-13.500000000000002" width="254.43262411347516" height="27.000000000000004" style="fill:#3e95ff;stroke:none;" id="shape_315"/></g><g id="container_15" transform="matrix(1.0000,0.0000,0.0000,1.0000,1010.0000,810.00)"><rect x="0" y="-13.500000000000002" width="320.2127659574468" height="27.000000000000004" style="fill:#3e95ff;stroke:none;" id="shape_316"/></g><g id="container_16" transform="matrix(1.0000,0.0000,0.0000,1.0000,1010.0000,2160.00)"><rect x="0" y="-13.500000000000002" width="225.886524822695" height="27.000000000000004" style="fill:#3e95ff;stroke:none;" id="shape_317"/></g><g id="container_17" transform="matrix(1.0000,0.0000,0.0000,1.0000,1010.0000,1560.00)"><rect x="0" y="-13.500000000000002" width="176.24113475177305" height="27.000000000000004" style="fill:#3e95ff;stroke:none;" id="shape_318"/></g><g id="container_18" transform="matrix(1.0000,0.0000,0.0000,1.0000,1010.0000,1680.00)"><rect x="0" y="-13.500000000000002" width="69.50354609929077" height="27.000000000000004" style="fill:#3e95ff;stroke:none;" id="shape_319"/></g><g id="container_19" transform="matrix(1.0000,0.0000,0.0000,1.0000,1010.0000,3450.00)"><rect x="0" y="-13.500000000000002" width="223.40425531914892" height="27.000000000000004" style="fill:#3e95ff;stroke:none;" id="shape_320"/></g><g id="container_20" transform="matrix(1.0000,0.0000,0.0000,1.0000,1010.0000,1590.00)"><rect x="0" y="-13.500000000000002" width="116.66666666666667" height="27.000000000000004" style="fill:#3e95ff;stroke:none;" id="shape_321"/></g><g id="container_21" transform="matrix(1.0000,0.0000,0.0000,1.0000,1010.0000,3000.00)"><rect x="0" y="-13.500000000000002" width="166.31205673758865" height="27.000000000000004" style="fill:#3e95ff;stroke:none;" id="shape_322"/></g><g id="container_22" transform="matrix(1.0000,0.0000,0.0000,1.0000,1010.0000,1500.00)"><rect x="0" y="-13.500000000000002" width="191.13475177304963" height="27.000000000000004" style="fill:#3e95ff;stroke:none;" id="shape_323"/></g><g id="container_23" transform="matrix(1.0000,0.0000,0.0000,1.0000,1010.0000,1290.00)"><rect x="0" y="-13.500000000000002" width="171.27659574468086" height="27.000000000000004" style="fill:#3e95ff;stroke:none;" id="shape_324"/></g><g id="container_24" transform="matrix(1.0000,0.0000,0.0000,1.0000,1010.0000,1470.00)"><rect x="0" y="-13.500000000000002" width="178.72340425531914" height="27.000000000000004" style="fill:#3e95ff;stroke:none;" id="shape_325"/></g><g id="container_25" transform="matrix(1.0000,0.0000,0.0000,1.0000,1010.0000,3960.00)"><rect x="0" y="-13.500000000000002" width="124.11347517730496" height="27.000000000000004" style="fill:#3e95ff;stroke:none;" id="shape_326"/></g><g id="container_26" transform="matrix(1.0000,0.0000,0.0000,1.0000,1010.0000,3180.00)"><rect x="0" y="-13.500000000000002" width="101.77304964539006" height="27.000000000000004" style="fill:#3e95ff;stroke:none;" id="shape_327"/></g><g id="container_27" transform="matrix(1.0000,0.0000,0.0000,1.0000,1010.0000,2310.00)"><rect x="0" y="-13.500000000000002" width="116.66666666666667" height="27.000000000000004" style="fill:#3e95ff;stroke:none;" id="shape_328"/></g><g id="container_28" transform="matrix(1.0000,0.0000,0.0000,1.0000,1010.0000,2340.00)"><rect x="0" y="-13.500000000000002" width="176.24113475177305" height="27.000000000000004" style="fill:#3e95ff;stroke:none;" id="shape_329"/></g><g id="container_29" transform="matrix(1.0000,0.0000,0.0000,1.0000,1010.0000,1830.00)"><rect x="0" y="-13.500000000000002" width="106.73758865248226" height="27.000000000000004" style="fill:#3e95ff;stroke:none;" id="shape_330"/></g><g id="container_30" transform="matrix(1.0000,0.0000,0.0000,1.0000,1010.0000,960.00)"><rect x="0" y="-13.500000000000002" width="52.12765957446808" height="27.000000000000004" style="fill:#3e95ff;stroke:none;" id="shape_331"/></g><g id="container_31" transform="matrix(1.0000,0.0000,0.0000,1.0000,1010.0000,2670.00)"><rect x="0" y="-13.500000000000002" width="121.63120567375887" height="27.000000000000004" style="fill:#3e95ff;stroke:none;" id="shape_332"/></g><g id="container_32" transform="matrix(1.0000,0.0000,0.0000,1.0000,1010.0000,3840.00)"><rect x="0" y="-13.500000000000002" width="210.99290780141843" height="27.000000000000004" style="fill:#3e95ff;stroke:none;" id="shape_333"/></g><g id="container_33" transform="matrix(1.0000,0.0000,0.0000,1.0000,1010.0000,2430.00)"><rect x="0" y="-13.500000000000002" width="158.86524822695037" height="27.000000000000004" style="fill:#3e95ff;stroke:none;" id="shape_334"/></g><g id="container_34" transform="matrix(1.0000,0.0000,0.0000,1.0000,1010.0000,2730.00)"><rect x="0" y="-13.500000000000002" width="22.340425531914892" height="27.000000000000004" style="fill:#3e95ff;stroke:none;" id="shape_335"/></g><g id="container_35" transform="matrix(1.0000,0.0000,0.0000,1.0000,1010.0000,1410.00)"><rect x="0" y="-13.500000000000002" width="131.56028368794324" height="27.000000000000004" style="fill:#3e95ff;stroke:none;" id="shape_336"/></g><g id="container_36" transform="matrix(1.0000,0.0000,0.0000,1.0000,1010.0000,900.00)"><rect x="0" y="-13.500000000000002" width="173.75886524822695" height="27.000000000000004" style="fill:#3e95ff;stroke:none;" id="shape_337"/></g><g id="container_37" transform="matrix(1.0000,0.0000,0.0000,1.0000,1010.0000,2640.00)"><rect x="0" y="-13.500000000000002" width="193.61702127659572" height="27.000000000000004" style="fill:#3e95ff;stroke:none;" id="shape_338"/></g><g id="container_38" transform="matrix(1.0000,0.0000,0.0000,1.0000,1010.0000,2940.00)"><rect x="0" y="-13.500000000000002" width="86.87943262411348" height="27.000000000000004" style="fill:#3e95ff;stroke:none;" id="shape_339"/></g><g id="container_39" transform="matrix(1.0000,0.0000,0.0000,1.0000,1010.0000,3720.00)"><rect x="0" y="-13.500000000000002" width="116.66666666666667" height="27.000000000000004" style="fill:#3e95ff;stroke:none;" id="shape_340"/></g><g id="container_40" transform="matrix(1.0000,0.0000,0.0000,1.0000,1010.0000,2790.00)"><rect x="0" y="-13.500000000000002" width="62.05673758865248" height="27.000000000000004" style="fill:#3e95ff;stroke:none;" id="shape_341"/></g><g id="container_41" transform="matrix(1.0000,0.0000,0.0000,1.0000,1010.0000,1770.00)"><rect x="0" y="-13.500000000000002" width="183.68794326241135" height="27.000000000000004" style="fill:#3e95ff;stroke:none;" id="shape_342"/></g><g id="container_42" transform="matrix(1.0000,0.0000,0.0000,1.0000,1010.0000,2460.00)"><rect x="0" y="-13.500000000000002" width="168.79432624113474" height="27.000000000000004" style="fill:#3e95ff;stroke:none;" id="shape_343"/></g><g id="container_43" transform="matrix(1.0000,0.0000,0.0000,1.0000,1010.0000,1620.00)"><rect x="0" y="-13.500000000000002" width="191.13475177304963" height="27.000000000000004" style="fill:#3e95ff;stroke:none;" id="shape_344"/></g><g id="container_44" transform="matrix(1.0000,0.0000,0.0000,1.0000,1010.0000,30.00)"><rect x="0" y="-13.500000000000002" width="129.07801418439718" height="27.000000000000004" style="fill:#3e95ff;stroke:none;" id="shape_345"/></g><g id="container_45" transform="matrix(1.0000,0.0000,0.0000,1.0000,1010.0000,2760.00)"><rect x="0" y="-13.500000000000002" width="225.886524822695" height="27.000000000000004" style="fill:#3e95ff;stroke:none;" id="shape_346"/></g><g id="container_46" transform="matrix(1.0000,0.0000,0.0000,1.0000,1010.0000,3750.00)"><rect x="0" y="-13.500000000000002" width="191.13475177304963" height="27.000000000000004" style="fill:#3e95ff;stroke:none;" id="shape_347"/></g><g id="container_47" transform="matrix(1.0000,0.0000,0.0000,1.0000,1010.0000,2550.00)"><rect x="0" y="-13.500000000000002" width="148.93617021276594" height="27.000000000000004" style="fill:#3e95ff;stroke:none;" id="shape_348"/></g><g id="container_48" transform="matrix(1.0000,0.0000,0.0000,1.0000,1010.0000,2490.00)"><rect x="0" y="-13.500000000000002" width="136.52482269503545" height="27.000000000000004" style="fill:#3e95ff;stroke:none;" id="shape_349"/></g><g id="container_49" transform="matrix(1.0000,0.0000,0.0000,1.0000,1010.0000,720.00)"><rect x="0" y="-13.500000000000002" width="206.02836879432624" height="27.000000000000004" style="fill:#3e95ff;stroke:none;" id="shape_350"/></g><g id="container_50" transform="matrix(1.0000,0.0000,0.0000,1.0000,1010.0000,1950.00)"><rect x="0" y="-13.500000000000002" width="22.340425531914892" height="27.000000000000004" style="fill:#3e95ff;stroke:none;" id="shape_351"/></g><g id="container_51" transform="matrix(1.0000,0.0000,0.0000,1.0000,1010.0000,750.00)"><rect x="0" y="-13.500000000000002" width="273.0496453900709" height="27.000000000000004" style="fill:#3e95ff;stroke:none;" id="shape_352"/></g><g id="container_52" transform="matrix(1.0000,0.0000,0.0000,1.0000,1010.0000,1530.00)"><rect x="0" y="-13.500000000000002" width="49.645390070921984" height="27.000000000000004" style="fill:#3e95ff;stroke:none;" id="shape_353"/></g><g id="container_53" transform="matrix(1.0000,0.0000,0.0000,1.0000,1010.0000,4170.00)"><rect x="0" y="-13.500000000000002" width="215.9574468085106" height="27.000000000000004" style="fill:#3e95ff;stroke:none;" id="shape_354"/></g><g id="container_54" transform="matrix(1.0000,0.0000,0.0000,1.0000,1010.0000,2280.00)"><rect x="0" y="-13.500000000000002" width="124.11347517730496" height="27.000000000000004" style="fill:#3e95ff;stroke:none;" id="shape_355"/></g><g id="container_55" transform="matrix(1.0000,0.0000,0.0000,1.0000,1010.0000,4050.00)"><rect x="0" y="-13.500000000000002" width="186.17021276595744" height="27.000000000000004" style="fill:#3e95ff;stroke:none;" id="shape_356"/></g><g id="container_56" transform="matrix(1.0000,0.0000,0.0000,1.0000,1010.0000,2190.00)"><rect x="0" y="-13.500000000000002" width="173.75886524822695" height="27.000000000000004" style="fill:#3e95ff;stroke:none;" id="shape_357"/></g><g id="container_57" transform="matrix(1.0000,0.0000,0.0000,1.0000,1010.0000,930.00)"><rect x="0" y="-13.500000000000002" width="178.72340425531914" height="27.000000000000004" style="fill:#3e95ff;stroke:none;" id="shape_358"/></g><g id="container_58" transform="matrix(1.0000,0.0000,0.0000,1.0000,1010.0000,2820.00)"><rect x="0" y="-13.500000000000002" width="315.2482269503546" height="27.000000000000004" style="fill:#3e95ff;stroke:none;" id="shape_359"/></g><g id="container_59" transform="matrix(1.0000,0.0000,0.0000,1.0000,1010.0000,3810.00)"><rect x="0" y="-13.500000000000002" width="91.84397163120568" height="27.000000000000004" style="fill:#3e95ff;stroke:none;" id="shape_360"/></g><g id="container_60" transform="matrix(1.0000,0.0000,0.0000,1.0000,1010.0000,4110.00)"><rect x="0" y="-13.500000000000002" width="198.58156028368793" height="27.000000000000004" style="fill:#3e95ff;stroke:none;" id="shape_361"/></g><g id="container_61" transform="matrix(1.0000,0.0000,0.0000,1.0000,1010.0000,3390.00)"><rect x="0" y="-13.500000000000002" width="129.07801418439718" height="27.000000000000004" style="fill:#3e95ff;stroke:none;" id="shape_362"/></g><g id="container_62" transform="matrix(1.0000,0.0000,0.0000,1.0000,1010.0000,4230.00)"><rect x="0" y="-13.500000000000002" width="52.12765957446808" height="27.000000000000004" style="fill:#3e95ff;stroke:none;" id="shape_363"/></g><g id="container_63" transform="matrix(1.0000,0.0000,0.0000,1.0000,1010.0000,1890.00)"><rect x="0" y="-13.500000000000002" width="71.98581560283688" height="27.000000000000004" style="fill:#3e95ff;stroke:none;" id="shape_364"/></g><g id="container_64" transform="matrix(1.0000,0.0000,0.0000,1.0000,1010.0000,4260.00)"><rect x="0" y="-13.500000000000002" width="34.75177304964539" height="27.000000000000004" style="fill:#3e95ff;stroke:none;" id="shape_365"/></g><g id="container_65" transform="matrix(1.0000,0.0000,0.0000,1.0000,1010.0000,3210.00)"><rect x="0" y="-13.500000000000002" width="153.90070921985816" height="27.000000000000004" style="fill:#3e95ff;stroke:none;" id="shape_366"/></g><g id="container_66" transform="matrix(1.0000,0.0000,0.0000,1.0000,1010.0000,1800.00)"><rect x="0" y="-13.500000000000002" width="210.99290780141843" height="27.000000000000004" style="fill:#3e95ff;stroke:none;" id="shape_367"/></g><g id="container_67" transform="matrix(1.0000,0.0000,0.0000,1.0000,1010.0000,870.00)"><rect x="0" y="-13.500000000000002" width="317.73049645390074" height="27.000000000000004" style="fill:#3e95ff;stroke:none;" id="shape_368"/></g><g id="container_68" transform="matrix(1.0000,0.0000,0.0000,1.0000,1010.0000,2070.00)"><rect x="0" y="-13.500000000000002" width="220.92198581560282" height="27.000000000000004" style="fill:#3e95ff;stroke:none;" id="shape_369"/></g><g id="container_69" transform="matrix(1.0000,0.0000,0.0000,1.0000,1010.0000,3360.00)"><rect x="0" y="-13.500000000000002" width="129.07801418439718" height="27.000000000000004" style="fill:#3e95ff;stroke:none;" id="shape_370"/></g><g id="container_70" transform="matrix(1.0000,0.0000,0.0000,1.0000,1010.0000,1740.00)"><rect x="0" y="-13.500000000000002" width="230.85106382978725" height="27.000000000000004" style="fill:#3e95ff;stroke:none;" id="shape_371"/></g></g><g id="container_71"/><g id="container_72"/><g id="container_73"/></g><g id="container_74" transform="matrix(1.0000,0.0000,0.0000,1.0000,100.0000,100.00)"/></g></svg>