<?xml version="1.0" encoding="utf-8" standalone="no"?>
<!DOCTYPE svg PUBLIC "-//W3C//DTD SVG 1.1//EN"
  "http://www.w3.org/Graphics/SVG/1.1/DTD/svg11.dtd">
<!-- Created with matplotlib (https://matplotlib.org/) -->
<svg height="288pt" version="1.1" viewBox="0 0 1440 288" width="1440pt" xmlns="http://www.w3.org/2000/svg" xmlns:xlink="http://www.w3.org/1999/xlink">
 <defs>
  <style type="text/css">
*{stroke-linecap:butt;stroke-linejoin:round;}
  </style>
 </defs>
 <g id="figure_1">
  <g id="patch_1">
   <path d="M 0 288 
L 1440 288 
L 1440 0 
L 0 0 
z
" style="fill:#ffffff;"/>
  </g>
  <g id="axes_1">
   <g id="patch_2">
    <path d="M 180 252 
L 1296 252 
L 1296 34.56 
L 180 34.56 
z
" style="fill:#ffffff;"/>
   </g>
   <g id="PathCollection_1">
    <defs>
     <path d="M 0 2.236068 
C 0.593012 2.236068 1.161816 2.000462 1.581139 1.581139 
C 2.000462 1.161816 2.236068 0.593012 2.236068 0 
C 2.236068 -0.593012 2.000462 -1.161816 1.581139 -1.581139 
C 1.161816 -2.000462 0.593012 -2.236068 0 -2.236068 
C -0.593012 -2.236068 -1.161816 -2.000462 -1.581139 -1.581139 
C -2.000462 -1.161816 -2.236068 -0.593012 -2.236068 0 
C -2.236068 0.593012 -2.000462 1.161816 -1.581139 1.581139 
C -1.161816 2.000462 -0.593012 2.236068 0 2.236068 
z
" id="m645bd1958c" style="stroke:#000000;"/>
    </defs>
    <g clip-path="url(#p2c4db6e402)">
     <use style="stroke:#000000;" x="187.342105" xlink:href="#m645bd1958c" y="70.392851"/>
     <use style="stroke:#000000;" x="202.026316" xlink:href="#m645bd1958c" y="85.220974"/>
     <use style="stroke:#000000;" x="216.710526" xlink:href="#m645bd1958c" y="86.456651"/>
     <use style="stroke:#000000;" x="231.394737" xlink:href="#m645bd1958c" y="87.692327"/>
     <use style="stroke:#000000;" x="246.078947" xlink:href="#m645bd1958c" y="91.399358"/>
     <use style="stroke:#000000;" x="260.763158" xlink:href="#m645bd1958c" y="104.991804"/>
     <use style="stroke:#000000;" x="275.447368" xlink:href="#m645bd1958c" y="108.698834"/>
     <use style="stroke:#000000;" x="290.131579" xlink:href="#m645bd1958c" y="123.526957"/>
     <use style="stroke:#000000;" x="304.815789" xlink:href="#m645bd1958c" y="129.705342"/>
     <use style="stroke:#000000;" x="319.5" xlink:href="#m645bd1958c" y="130.941018"/>
     <use style="stroke:#000000;" x="334.184211" xlink:href="#m645bd1958c" y="130.941018"/>
     <use style="stroke:#000000;" x="348.868421" xlink:href="#m645bd1958c" y="132.176695"/>
     <use style="stroke:#000000;" x="363.552632" xlink:href="#m645bd1958c" y="132.176695"/>
     <use style="stroke:#000000;" x="378.236842" xlink:href="#m645bd1958c" y="133.412372"/>
     <use style="stroke:#000000;" x="392.921053" xlink:href="#m645bd1958c" y="134.648049"/>
     <use style="stroke:#000000;" x="407.605263" xlink:href="#m645bd1958c" y="134.648049"/>
     <use style="stroke:#000000;" x="422.289474" xlink:href="#m645bd1958c" y="137.119403"/>
     <use style="stroke:#000000;" x="436.973684" xlink:href="#m645bd1958c" y="139.590757"/>
     <use style="stroke:#000000;" x="451.657895" xlink:href="#m645bd1958c" y="139.590757"/>
     <use style="stroke:#000000;" x="466.342105" xlink:href="#m645bd1958c" y="139.590757"/>
     <use style="stroke:#000000;" x="481.026316" xlink:href="#m645bd1958c" y="142.06211"/>
     <use style="stroke:#000000;" x="495.710526" xlink:href="#m645bd1958c" y="143.297787"/>
     <use style="stroke:#000000;" x="510.394737" xlink:href="#m645bd1958c" y="145.769141"/>
     <use style="stroke:#000000;" x="525.078947" xlink:href="#m645bd1958c" y="148.240495"/>
     <use style="stroke:#000000;" x="539.763158" xlink:href="#m645bd1958c" y="149.476172"/>
     <use style="stroke:#000000;" x="554.447368" xlink:href="#m645bd1958c" y="149.476172"/>
     <use style="stroke:#000000;" x="569.131579" xlink:href="#m645bd1958c" y="149.476172"/>
     <use style="stroke:#000000;" x="583.815789" xlink:href="#m645bd1958c" y="151.947525"/>
     <use style="stroke:#000000;" x="598.5" xlink:href="#m645bd1958c" y="153.183202"/>
     <use style="stroke:#000000;" x="613.184211" xlink:href="#m645bd1958c" y="155.654556"/>
     <use style="stroke:#000000;" x="627.868421" xlink:href="#m645bd1958c" y="155.654556"/>
     <use style="stroke:#000000;" x="642.552632" xlink:href="#m645bd1958c" y="156.890233"/>
     <use style="stroke:#000000;" x="657.236842" xlink:href="#m645bd1958c" y="156.890233"/>
     <use style="stroke:#000000;" x="671.921053" xlink:href="#m645bd1958c" y="158.12591"/>
     <use style="stroke:#000000;" x="686.605263" xlink:href="#m645bd1958c" y="158.12591"/>
     <use style="stroke:#000000;" x="701.289474" xlink:href="#m645bd1958c" y="159.361587"/>
     <use style="stroke:#000000;" x="715.973684" xlink:href="#m645bd1958c" y="160.597264"/>
     <use style="stroke:#000000;" x="730.657895" xlink:href="#m645bd1958c" y="161.832941"/>
     <use style="stroke:#000000;" x="745.342105" xlink:href="#m645bd1958c" y="161.832941"/>
     <use style="stroke:#000000;" x="760.026316" xlink:href="#m645bd1958c" y="163.068617"/>
     <use style="stroke:#000000;" x="774.710526" xlink:href="#m645bd1958c" y="165.539971"/>
     <use style="stroke:#000000;" x="789.394737" xlink:href="#m645bd1958c" y="166.775648"/>
     <use style="stroke:#000000;" x="804.078947" xlink:href="#m645bd1958c" y="168.011325"/>
     <use style="stroke:#000000;" x="818.763158" xlink:href="#m645bd1958c" y="170.482679"/>
     <use style="stroke:#000000;" x="833.447368" xlink:href="#m645bd1958c" y="170.482679"/>
     <use style="stroke:#000000;" x="848.131579" xlink:href="#m645bd1958c" y="176.661063"/>
     <use style="stroke:#000000;" x="862.815789" xlink:href="#m645bd1958c" y="176.661063"/>
     <use style="stroke:#000000;" x="877.5" xlink:href="#m645bd1958c" y="179.132417"/>
     <use style="stroke:#000000;" x="892.184211" xlink:href="#m645bd1958c" y="180.368094"/>
     <use style="stroke:#000000;" x="906.868421" xlink:href="#m645bd1958c" y="180.368094"/>
     <use style="stroke:#000000;" x="921.552632" xlink:href="#m645bd1958c" y="180.368094"/>
     <use style="stroke:#000000;" x="936.236842" xlink:href="#m645bd1958c" y="182.839448"/>
     <use style="stroke:#000000;" x="950.921053" xlink:href="#m645bd1958c" y="184.075125"/>
     <use style="stroke:#000000;" x="965.605263" xlink:href="#m645bd1958c" y="186.546478"/>
     <use style="stroke:#000000;" x="980.289474" xlink:href="#m645bd1958c" y="186.546478"/>
     <use style="stroke:#000000;" x="994.973684" xlink:href="#m645bd1958c" y="186.546478"/>
     <use style="stroke:#000000;" x="1009.657895" xlink:href="#m645bd1958c" y="191.489186"/>
     <use style="stroke:#000000;" x="1024.342105" xlink:href="#m645bd1958c" y="193.96054"/>
     <use style="stroke:#000000;" x="1039.026316" xlink:href="#m645bd1958c" y="195.196217"/>
     <use style="stroke:#000000;" x="1053.710526" xlink:href="#m645bd1958c" y="198.903247"/>
     <use style="stroke:#000000;" x="1068.394737" xlink:href="#m645bd1958c" y="201.374601"/>
     <use style="stroke:#000000;" x="1083.078947" xlink:href="#m645bd1958c" y="202.610278"/>
     <use style="stroke:#000000;" x="1097.763158" xlink:href="#m645bd1958c" y="208.788662"/>
     <use style="stroke:#000000;" x="1112.447368" xlink:href="#m645bd1958c" y="210.024339"/>
     <use style="stroke:#000000;" x="1127.131579" xlink:href="#m645bd1958c" y="213.73137"/>
     <use style="stroke:#000000;" x="1141.815789" xlink:href="#m645bd1958c" y="217.4384"/>
     <use style="stroke:#000000;" x="1156.5" xlink:href="#m645bd1958c" y="218.674077"/>
     <use style="stroke:#000000;" x="1171.184211" xlink:href="#m645bd1958c" y="218.674077"/>
     <use style="stroke:#000000;" x="1185.868421" xlink:href="#m645bd1958c" y="218.674077"/>
     <use style="stroke:#000000;" x="1200.552632" xlink:href="#m645bd1958c" y="219.909754"/>
     <use style="stroke:#000000;" x="1215.236842" xlink:href="#m645bd1958c" y="227.323816"/>
     <use style="stroke:#000000;" x="1229.921053" xlink:href="#m645bd1958c" y="233.5022"/>
     <use style="stroke:#000000;" x="1244.605263" xlink:href="#m645bd1958c" y="233.5022"/>
     <use style="stroke:#000000;" x="1259.289474" xlink:href="#m645bd1958c" y="237.209231"/>
    </g>
   </g>
   <g id="PolyCollection_1">
    <defs>
     <path d="M 180 -113.75642 
L 180 -91.029638 
L 1296 -91.029638 
L 1296 -113.75642 
L 1296 -113.75642 
L 180 -113.75642 
z
" id="m90533073a2" style="stroke:#229954;stroke-opacity:0.5;"/>
    </defs>
    <g clip-path="url(#p2c4db6e402)">
     <use style="fill:#229954;fill-opacity:0.5;stroke:#229954;stroke-opacity:0.5;" x="0" xlink:href="#m90533073a2" y="288"/>
    </g>
   </g>
   <g id="PathCollection_2">
    <defs>
     <path d="M 0 5 
C 1.326016 5 2.597899 4.473168 3.535534 3.535534 
C 4.473168 2.597899 5 1.326016 5 0 
C 5 -1.326016 4.473168 -2.597899 3.535534 -3.535534 
C 2.597899 -4.473168 1.326016 -5 0 -5 
C -1.326016 -5 -2.597899 -4.473168 -3.535534 -3.535534 
C -4.473168 -2.597899 -5 -1.326016 -5 0 
C -5 1.326016 -4.473168 2.597899 -3.535534 3.535534 
C -2.597899 4.473168 -1.326016 5 0 5 
z
" id="m4e203ee208" style="stroke:#3e95ff;"/>
    </defs>
    <g clip-path="url(#p2c4db6e402)">
     <use style="fill:#3e95ff;stroke:#3e95ff;" x="187.342105" xlink:href="#m4e203ee208" y="70.392851"/>
     <use style="fill:#3e95ff;stroke:#3e95ff;" x="202.026316" xlink:href="#m4e203ee208" y="85.220974"/>
     <use style="fill:#3e95ff;stroke:#3e95ff;" x="216.710526" xlink:href="#m4e203ee208" y="86.456651"/>
     <use style="fill:#3e95ff;stroke:#3e95ff;" x="231.394737" xlink:href="#m4e203ee208" y="87.692327"/>
     <use style="fill:#3e95ff;stroke:#3e95ff;" x="246.078947" xlink:href="#m4e203ee208" y="91.399358"/>
     <use style="fill:#3e95ff;stroke:#3e95ff;" x="260.763158" xlink:href="#m4e203ee208" y="104.991804"/>
     <use style="fill:#3e95ff;stroke:#3e95ff;" x="275.447368" xlink:href="#m4e203ee208" y="108.698834"/>
     <use style="fill:#3e95ff;stroke:#3e95ff;" x="290.131579" xlink:href="#m4e203ee208" y="123.526957"/>
     <use style="fill:#3e95ff;stroke:#3e95ff;" x="304.815789" xlink:href="#m4e203ee208" y="129.705342"/>
     <use style="fill:#3e95ff;stroke:#3e95ff;" x="319.5" xlink:href="#m4e203ee208" y="130.941018"/>
     <use style="fill:#3e95ff;stroke:#3e95ff;" x="334.184211" xlink:href="#m4e203ee208" y="130.941018"/>
     <use style="fill:#3e95ff;stroke:#3e95ff;" x="348.868421" xlink:href="#m4e203ee208" y="132.176695"/>
     <use style="fill:#3e95ff;stroke:#3e95ff;" x="363.552632" xlink:href="#m4e203ee208" y="132.176695"/>
     <use style="fill:#3e95ff;stroke:#3e95ff;" x="378.236842" xlink:href="#m4e203ee208" y="133.412372"/>
     <use style="fill:#3e95ff;stroke:#3e95ff;" x="392.921053" xlink:href="#m4e203ee208" y="134.648049"/>
     <use style="fill:#3e95ff;stroke:#3e95ff;" x="407.605263" xlink:href="#m4e203ee208" y="134.648049"/>
     <use style="fill:#3e95ff;stroke:#3e95ff;" x="422.289474" xlink:href="#m4e203ee208" y="137.119403"/>
     <use style="fill:#3e95ff;stroke:#3e95ff;" x="436.973684" xlink:href="#m4e203ee208" y="139.590757"/>
     <use style="fill:#3e95ff;stroke:#3e95ff;" x="451.657895" xlink:href="#m4e203ee208" y="139.590757"/>
     <use style="fill:#3e95ff;stroke:#3e95ff;" x="466.342105" xlink:href="#m4e203ee208" y="139.590757"/>
     <use style="fill:#3e95ff;stroke:#3e95ff;" x="481.026316" xlink:href="#m4e203ee208" y="142.06211"/>
     <use style="fill:#3e95ff;stroke:#3e95ff;" x="495.710526" xlink:href="#m4e203ee208" y="143.297787"/>
     <use style="fill:#3e95ff;stroke:#3e95ff;" x="510.394737" xlink:href="#m4e203ee208" y="145.769141"/>
     <use style="fill:#3e95ff;stroke:#3e95ff;" x="525.078947" xlink:href="#m4e203ee208" y="148.240495"/>
     <use style="fill:#3e95ff;stroke:#3e95ff;" x="539.763158" xlink:href="#m4e203ee208" y="149.476172"/>
     <use style="fill:#3e95ff;stroke:#3e95ff;" x="554.447368" xlink:href="#m4e203ee208" y="149.476172"/>
     <use style="fill:#3e95ff;stroke:#3e95ff;" x="569.131579" xlink:href="#m4e203ee208" y="149.476172"/>
     <use style="fill:#3e95ff;stroke:#3e95ff;" x="583.815789" xlink:href="#m4e203ee208" y="151.947525"/>
     <use style="fill:#3e95ff;stroke:#3e95ff;" x="598.5" xlink:href="#m4e203ee208" y="153.183202"/>
     <use style="fill:#3e95ff;stroke:#3e95ff;" x="613.184211" xlink:href="#m4e203ee208" y="155.654556"/>
     <use style="fill:#3e95ff;stroke:#3e95ff;" x="627.868421" xlink:href="#m4e203ee208" y="155.654556"/>
     <use style="fill:#3e95ff;stroke:#3e95ff;" x="642.552632" xlink:href="#m4e203ee208" y="156.890233"/>
     <use style="fill:#3e95ff;stroke:#3e95ff;" x="657.236842" xlink:href="#m4e203ee208" y="156.890233"/>
     <use style="fill:#3e95ff;stroke:#3e95ff;" x="671.921053" xlink:href="#m4e203ee208" y="158.12591"/>
     <use style="fill:#3e95ff;stroke:#3e95ff;" x="686.605263" xlink:href="#m4e203ee208" y="158.12591"/>
     <use style="fill:#3e95ff;stroke:#3e95ff;" x="701.289474" xlink:href="#m4e203ee208" y="159.361587"/>
     <use style="fill:#3e95ff;stroke:#3e95ff;" x="715.973684" xlink:href="#m4e203ee208" y="160.597264"/>
     <use style="fill:#3e95ff;stroke:#3e95ff;" x="730.657895" xlink:href="#m4e203ee208" y="161.832941"/>
     <use style="fill:#3e95ff;stroke:#3e95ff;" x="745.342105" xlink:href="#m4e203ee208" y="161.832941"/>
     <use style="fill:#3e95ff;stroke:#3e95ff;" x="760.026316" xlink:href="#m4e203ee208" y="163.068617"/>
     <use style="fill:#3e95ff;stroke:#3e95ff;" x="774.710526" xlink:href="#m4e203ee208" y="165.539971"/>
     <use style="fill:#3e95ff;stroke:#3e95ff;" x="789.394737" xlink:href="#m4e203ee208" y="166.775648"/>
     <use style="fill:#3e95ff;stroke:#3e95ff;" x="804.078947" xlink:href="#m4e203ee208" y="168.011325"/>
     <use style="fill:#3e95ff;stroke:#3e95ff;" x="818.763158" xlink:href="#m4e203ee208" y="170.482679"/>
     <use style="fill:#3e95ff;stroke:#3e95ff;" x="833.447368" xlink:href="#m4e203ee208" y="170.482679"/>
     <use style="fill:#3e95ff;stroke:#3e95ff;" x="848.131579" xlink:href="#m4e203ee208" y="176.661063"/>
     <use style="fill:#3e95ff;stroke:#3e95ff;" x="862.815789" xlink:href="#m4e203ee208" y="176.661063"/>
     <use style="fill:#3e95ff;stroke:#3e95ff;" x="877.5" xlink:href="#m4e203ee208" y="179.132417"/>
     <use style="fill:#3e95ff;stroke:#3e95ff;" x="892.184211" xlink:href="#m4e203ee208" y="180.368094"/>
     <use style="fill:#3e95ff;stroke:#3e95ff;" x="906.868421" xlink:href="#m4e203ee208" y="180.368094"/>
     <use style="fill:#3e95ff;stroke:#3e95ff;" x="921.552632" xlink:href="#m4e203ee208" y="180.368094"/>
     <use style="fill:#3e95ff;stroke:#3e95ff;" x="936.236842" xlink:href="#m4e203ee208" y="182.839448"/>
     <use style="fill:#3e95ff;stroke:#3e95ff;" x="950.921053" xlink:href="#m4e203ee208" y="184.075125"/>
     <use style="fill:#3e95ff;stroke:#3e95ff;" x="965.605263" xlink:href="#m4e203ee208" y="186.546478"/>
     <use style="fill:#3e95ff;stroke:#3e95ff;" x="980.289474" xlink:href="#m4e203ee208" y="186.546478"/>
     <use style="fill:#3e95ff;stroke:#3e95ff;" x="994.973684" xlink:href="#m4e203ee208" y="186.546478"/>
     <use style="fill:#3e95ff;stroke:#3e95ff;" x="1009.657895" xlink:href="#m4e203ee208" y="191.489186"/>
     <use style="fill:#3e95ff;stroke:#3e95ff;" x="1024.342105" xlink:href="#m4e203ee208" y="193.96054"/>
     <use style="fill:#3e95ff;stroke:#3e95ff;" x="1039.026316" xlink:href="#m4e203ee208" y="195.196217"/>
     <use style="fill:#3e95ff;stroke:#3e95ff;" x="1053.710526" xlink:href="#m4e203ee208" y="198.903247"/>
     <use style="fill:#3e95ff;stroke:#3e95ff;" x="1068.394737" xlink:href="#m4e203ee208" y="201.374601"/>
     <use style="fill:#3e95ff;stroke:#3e95ff;" x="1083.078947" xlink:href="#m4e203ee208" y="202.610278"/>
     <use style="fill:#3e95ff;stroke:#3e95ff;" x="1097.763158" xlink:href="#m4e203ee208" y="208.788662"/>
     <use style="fill:#3e95ff;stroke:#3e95ff;" x="1112.447368" xlink:href="#m4e203ee208" y="210.024339"/>
     <use style="fill:#3e95ff;stroke:#3e95ff;" x="1127.131579" xlink:href="#m4e203ee208" y="213.73137"/>
     <use style="fill:#3e95ff;stroke:#3e95ff;" x="1141.815789" xlink:href="#m4e203ee208" y="217.4384"/>
     <use style="fill:#3e95ff;stroke:#3e95ff;" x="1156.5" xlink:href="#m4e203ee208" y="218.674077"/>
     <use style="fill:#3e95ff;stroke:#3e95ff;" x="1171.184211" xlink:href="#m4e203ee208" y="218.674077"/>
     <use style="fill:#3e95ff;stroke:#3e95ff;" x="1185.868421" xlink:href="#m4e203ee208" y="218.674077"/>
     <use style="fill:#3e95ff;stroke:#3e95ff;" x="1200.552632" xlink:href="#m4e203ee208" y="219.909754"/>
     <use style="fill:#3e95ff;stroke:#3e95ff;" x="1215.236842" xlink:href="#m4e203ee208" y="227.323816"/>
     <use style="fill:#3e95ff;stroke:#3e95ff;" x="1229.921053" xlink:href="#m4e203ee208" y="233.5022"/>
     <use style="fill:#3e95ff;stroke:#3e95ff;" x="1244.605263" xlink:href="#m4e203ee208" y="233.5022"/>
     <use style="fill:#3e95ff;stroke:#3e95ff;" x="1259.289474" xlink:href="#m4e203ee208" y="237.209231"/>
    </g>
   </g>
   <g id="matplotlib.axis_1">
    <g id="text_1">
     <!-- rubisco variants -->
     <defs>
      <path d="M 41.109375 46.296875 
Q 39.59375 47.171875 37.8125 47.578125 
Q 36.03125 48 33.890625 48 
Q 26.265625 48 22.1875 43.046875 
Q 18.109375 38.09375 18.109375 28.8125 
L 18.109375 0 
L 9.078125 0 
L 9.078125 54.6875 
L 18.109375 54.6875 
L 18.109375 46.1875 
Q 20.953125 51.171875 25.484375 53.578125 
Q 30.03125 56 36.53125 56 
Q 37.453125 56 38.578125 55.875 
Q 39.703125 55.765625 41.0625 55.515625 
z
" id="DejaVuSans-114"/>
      <path d="M 8.5 21.578125 
L 8.5 54.6875 
L 17.484375 54.6875 
L 17.484375 21.921875 
Q 17.484375 14.15625 20.5 10.265625 
Q 23.53125 6.390625 29.59375 6.390625 
Q 36.859375 6.390625 41.078125 11.03125 
Q 45.3125 15.671875 45.3125 23.6875 
L 45.3125 54.6875 
L 54.296875 54.6875 
L 54.296875 0 
L 45.3125 0 
L 45.3125 8.40625 
Q 42.046875 3.421875 37.71875 1 
Q 33.40625 -1.421875 27.6875 -1.421875 
Q 18.265625 -1.421875 13.375 4.4375 
Q 8.5 10.296875 8.5 21.578125 
z
M 31.109375 56 
z
" id="DejaVuSans-117"/>
      <path d="M 48.6875 27.296875 
Q 48.6875 37.203125 44.609375 42.84375 
Q 40.53125 48.484375 33.40625 48.484375 
Q 26.265625 48.484375 22.1875 42.84375 
Q 18.109375 37.203125 18.109375 27.296875 
Q 18.109375 17.390625 22.1875 11.75 
Q 26.265625 6.109375 33.40625 6.109375 
Q 40.53125 6.109375 44.609375 11.75 
Q 48.6875 17.390625 48.6875 27.296875 
z
M 18.109375 46.390625 
Q 20.953125 51.265625 25.265625 53.625 
Q 29.59375 56 35.59375 56 
Q 45.5625 56 51.78125 48.09375 
Q 58.015625 40.1875 58.015625 27.296875 
Q 58.015625 14.40625 51.78125 6.484375 
Q 45.5625 -1.421875 35.59375 -1.421875 
Q 29.59375 -1.421875 25.265625 0.953125 
Q 20.953125 3.328125 18.109375 8.203125 
L 18.109375 0 
L 9.078125 0 
L 9.078125 75.984375 
L 18.109375 75.984375 
z
" id="DejaVuSans-98"/>
      <path d="M 9.421875 54.6875 
L 18.40625 54.6875 
L 18.40625 0 
L 9.421875 0 
z
M 9.421875 75.984375 
L 18.40625 75.984375 
L 18.40625 64.59375 
L 9.421875 64.59375 
z
" id="DejaVuSans-105"/>
      <path d="M 44.28125 53.078125 
L 44.28125 44.578125 
Q 40.484375 46.53125 36.375 47.5 
Q 32.28125 48.484375 27.875 48.484375 
Q 21.1875 48.484375 17.84375 46.4375 
Q 14.5 44.390625 14.5 40.28125 
Q 14.5 37.15625 16.890625 35.375 
Q 19.28125 33.59375 26.515625 31.984375 
L 29.59375 31.296875 
Q 39.15625 29.25 43.1875 25.515625 
Q 47.21875 21.78125 47.21875 15.09375 
Q 47.21875 7.46875 41.1875 3.015625 
Q 35.15625 -1.421875 24.609375 -1.421875 
Q 20.21875 -1.421875 15.453125 -0.5625 
Q 10.6875 0.296875 5.421875 2 
L 5.421875 11.28125 
Q 10.40625 8.6875 15.234375 7.390625 
Q 20.0625 6.109375 24.8125 6.109375 
Q 31.15625 6.109375 34.5625 8.28125 
Q 37.984375 10.453125 37.984375 14.40625 
Q 37.984375 18.0625 35.515625 20.015625 
Q 33.0625 21.96875 24.703125 23.78125 
L 21.578125 24.515625 
Q 13.234375 26.265625 9.515625 29.90625 
Q 5.8125 33.546875 5.8125 39.890625 
Q 5.8125 47.609375 11.28125 51.796875 
Q 16.75 56 26.8125 56 
Q 31.78125 56 36.171875 55.265625 
Q 40.578125 54.546875 44.28125 53.078125 
z
" id="DejaVuSans-115"/>
      <path d="M 48.78125 52.59375 
L 48.78125 44.1875 
Q 44.96875 46.296875 41.140625 47.34375 
Q 37.3125 48.390625 33.40625 48.390625 
Q 24.65625 48.390625 19.8125 42.84375 
Q 14.984375 37.3125 14.984375 27.296875 
Q 14.984375 17.28125 19.8125 11.734375 
Q 24.65625 6.203125 33.40625 6.203125 
Q 37.3125 6.203125 41.140625 7.25 
Q 44.96875 8.296875 48.78125 10.40625 
L 48.78125 2.09375 
Q 45.015625 0.34375 40.984375 -0.53125 
Q 36.96875 -1.421875 32.421875 -1.421875 
Q 20.0625 -1.421875 12.78125 6.34375 
Q 5.515625 14.109375 5.515625 27.296875 
Q 5.515625 40.671875 12.859375 48.328125 
Q 20.21875 56 33.015625 56 
Q 37.15625 56 41.109375 55.140625 
Q 45.0625 54.296875 48.78125 52.59375 
z
" id="DejaVuSans-99"/>
      <path d="M 30.609375 48.390625 
Q 23.390625 48.390625 19.1875 42.75 
Q 14.984375 37.109375 14.984375 27.296875 
Q 14.984375 17.484375 19.15625 11.84375 
Q 23.34375 6.203125 30.609375 6.203125 
Q 37.796875 6.203125 41.984375 11.859375 
Q 46.1875 17.53125 46.1875 27.296875 
Q 46.1875 37.015625 41.984375 42.703125 
Q 37.796875 48.390625 30.609375 48.390625 
z
M 30.609375 56 
Q 42.328125 56 49.015625 48.375 
Q 55.71875 40.765625 55.71875 27.296875 
Q 55.71875 13.875 49.015625 6.21875 
Q 42.328125 -1.421875 30.609375 -1.421875 
Q 18.84375 -1.421875 12.171875 6.21875 
Q 5.515625 13.875 5.515625 27.296875 
Q 5.515625 40.765625 12.171875 48.375 
Q 18.84375 56 30.609375 56 
z
" id="DejaVuSans-111"/>
      <path id="DejaVuSans-32"/>
      <path d="M 2.984375 54.6875 
L 12.5 54.6875 
L 29.59375 8.796875 
L 46.6875 54.6875 
L 56.203125 54.6875 
L 35.6875 0 
L 23.484375 0 
z
" id="DejaVuSans-118"/>
      <path d="M 34.28125 27.484375 
Q 23.390625 27.484375 19.1875 25 
Q 14.984375 22.515625 14.984375 16.5 
Q 14.984375 11.71875 18.140625 8.90625 
Q 21.296875 6.109375 26.703125 6.109375 
Q 34.1875 6.109375 38.703125 11.40625 
Q 43.21875 16.703125 43.21875 25.484375 
L 43.21875 27.484375 
z
M 52.203125 31.203125 
L 52.203125 0 
L 43.21875 0 
L 43.21875 8.296875 
Q 40.140625 3.328125 35.546875 0.953125 
Q 30.953125 -1.421875 24.3125 -1.421875 
Q 15.921875 -1.421875 10.953125 3.296875 
Q 6 8.015625 6 15.921875 
Q 6 25.140625 12.171875 29.828125 
Q 18.359375 34.515625 30.609375 34.515625 
L 43.21875 34.515625 
L 43.21875 35.40625 
Q 43.21875 41.609375 39.140625 45 
Q 35.0625 48.390625 27.6875 48.390625 
Q 23 48.390625 18.546875 47.265625 
Q 14.109375 46.140625 10.015625 43.890625 
L 10.015625 52.203125 
Q 14.9375 54.109375 19.578125 55.046875 
Q 24.21875 56 28.609375 56 
Q 40.484375 56 46.34375 49.84375 
Q 52.203125 43.703125 52.203125 31.203125 
z
" id="DejaVuSans-97"/>
      <path d="M 54.890625 33.015625 
L 54.890625 0 
L 45.90625 0 
L 45.90625 32.71875 
Q 45.90625 40.484375 42.875 44.328125 
Q 39.84375 48.1875 33.796875 48.1875 
Q 26.515625 48.1875 22.3125 43.546875 
Q 18.109375 38.921875 18.109375 30.90625 
L 18.109375 0 
L 9.078125 0 
L 9.078125 54.6875 
L 18.109375 54.6875 
L 18.109375 46.1875 
Q 21.34375 51.125 25.703125 53.5625 
Q 30.078125 56 35.796875 56 
Q 45.21875 56 50.046875 50.171875 
Q 54.890625 44.34375 54.890625 33.015625 
z
" id="DejaVuSans-110"/>
      <path d="M 18.3125 70.21875 
L 18.3125 54.6875 
L 36.8125 54.6875 
L 36.8125 47.703125 
L 18.3125 47.703125 
L 18.3125 18.015625 
Q 18.3125 11.328125 20.140625 9.421875 
Q 21.96875 7.515625 27.59375 7.515625 
L 36.8125 7.515625 
L 36.8125 0 
L 27.59375 0 
Q 17.1875 0 13.234375 3.875 
Q 9.28125 7.765625 9.28125 18.015625 
L 9.28125 47.703125 
L 2.6875 47.703125 
L 2.6875 54.6875 
L 9.28125 54.6875 
L 9.28125 70.21875 
z
" id="DejaVuSans-116"/>
     </defs>
     <g transform="translate(637.861328 274.996094)scale(0.25 -0.25)">
      <use xlink:href="#DejaVuSans-114"/>
      <use x="41.113281" xlink:href="#DejaVuSans-117"/>
      <use x="104.492188" xlink:href="#DejaVuSans-98"/>
      <use x="167.96875" xlink:href="#DejaVuSans-105"/>
      <use x="195.751953" xlink:href="#DejaVuSans-115"/>
      <use x="247.851562" xlink:href="#DejaVuSans-99"/>
      <use x="302.832031" xlink:href="#DejaVuSans-111"/>
      <use x="364.013672" xlink:href="#DejaVuSans-32"/>
      <use x="395.800781" xlink:href="#DejaVuSans-118"/>
      <use x="454.980469" xlink:href="#DejaVuSans-97"/>
      <use x="516.259766" xlink:href="#DejaVuSans-114"/>
      <use x="557.373047" xlink:href="#DejaVuSans-105"/>
      <use x="585.15625" xlink:href="#DejaVuSans-97"/>
      <use x="646.435547" xlink:href="#DejaVuSans-110"/>
      <use x="709.814453" xlink:href="#DejaVuSans-116"/>
      <use x="749.023438" xlink:href="#DejaVuSans-115"/>
     </g>
    </g>
   </g>
   <g id="matplotlib.axis_2">
    <g id="ytick_1">
     <g id="line2d_1">
      <defs>
       <path d="M 0 0 
L -3.5 0 
" id="mbb64136186" style="stroke:#000000;stroke-width:2.5;"/>
      </defs>
      <g>
       <use style="stroke:#000000;stroke-width:2.5;" x="180" xlink:href="#mbb64136186" y="244.623292"/>
      </g>
     </g>
     <g id="text_2">
      <!-- 0 -->
      <defs>
       <path d="M 31.78125 66.40625 
Q 24.171875 66.40625 20.328125 58.90625 
Q 16.5 51.421875 16.5 36.375 
Q 16.5 21.390625 20.328125 13.890625 
Q 24.171875 6.390625 31.78125 6.390625 
Q 39.453125 6.390625 43.28125 13.890625 
Q 47.125 21.390625 47.125 36.375 
Q 47.125 51.421875 43.28125 58.90625 
Q 39.453125 66.40625 31.78125 66.40625 
z
M 31.78125 74.21875 
Q 44.046875 74.21875 50.515625 64.515625 
Q 56.984375 54.828125 56.984375 36.375 
Q 56.984375 17.96875 50.515625 8.265625 
Q 44.046875 -1.421875 31.78125 -1.421875 
Q 19.53125 -1.421875 13.0625 8.265625 
Q 6.59375 17.96875 6.59375 36.375 
Q 6.59375 54.828125 13.0625 64.515625 
Q 19.53125 74.21875 31.78125 74.21875 
z
" id="DejaVuSans-48"/>
      </defs>
      <g transform="translate(157.09375 254.121339)scale(0.25 -0.25)">
       <use xlink:href="#DejaVuSans-48"/>
      </g>
     </g>
    </g>
    <g id="ytick_2">
     <g id="line2d_2">
      <g>
       <use style="stroke:#000000;stroke-width:2.5;" x="180" xlink:href="#mbb64136186" y="182.839448"/>
      </g>
     </g>
     <g id="text_3">
      <!-- 5 -->
      <defs>
       <path d="M 10.796875 72.90625 
L 49.515625 72.90625 
L 49.515625 64.59375 
L 19.828125 64.59375 
L 19.828125 46.734375 
Q 21.96875 47.46875 24.109375 47.828125 
Q 26.265625 48.1875 28.421875 48.1875 
Q 40.625 48.1875 47.75 41.5 
Q 54.890625 34.8125 54.890625 23.390625 
Q 54.890625 11.625 47.5625 5.09375 
Q 40.234375 -1.421875 26.90625 -1.421875 
Q 22.3125 -1.421875 17.546875 -0.640625 
Q 12.796875 0.140625 7.71875 1.703125 
L 7.71875 11.625 
Q 12.109375 9.234375 16.796875 8.0625 
Q 21.484375 6.890625 26.703125 6.890625 
Q 35.15625 6.890625 40.078125 11.328125 
Q 45.015625 15.765625 45.015625 23.390625 
Q 45.015625 31 40.078125 35.4375 
Q 35.15625 39.890625 26.703125 39.890625 
Q 22.75 39.890625 18.8125 39.015625 
Q 14.890625 38.140625 10.796875 36.28125 
z
" id="DejaVuSans-53"/>
      </defs>
      <g transform="translate(157.09375 192.337495)scale(0.25 -0.25)">
       <use xlink:href="#DejaVuSans-53"/>
      </g>
     </g>
    </g>
    <g id="ytick_3">
     <g id="line2d_3">
      <g>
       <use style="stroke:#000000;stroke-width:2.5;" x="180" xlink:href="#mbb64136186" y="121.055603"/>
      </g>
     </g>
     <g id="text_4">
      <!-- 10 -->
      <defs>
       <path d="M 12.40625 8.296875 
L 28.515625 8.296875 
L 28.515625 63.921875 
L 10.984375 60.40625 
L 10.984375 69.390625 
L 28.421875 72.90625 
L 38.28125 72.90625 
L 38.28125 8.296875 
L 54.390625 8.296875 
L 54.390625 0 
L 12.40625 0 
z
" id="DejaVuSans-49"/>
      </defs>
      <g transform="translate(141.1875 130.55365)scale(0.25 -0.25)">
       <use xlink:href="#DejaVuSans-49"/>
       <use x="63.623047" xlink:href="#DejaVuSans-48"/>
      </g>
     </g>
    </g>
    <g id="ytick_4">
     <g id="line2d_4">
      <g>
       <use style="stroke:#000000;stroke-width:2.5;" x="180" xlink:href="#mbb64136186" y="59.271759"/>
      </g>
     </g>
     <g id="text_5">
      <!-- 15 -->
      <g transform="translate(141.1875 68.769806)scale(0.25 -0.25)">
       <use xlink:href="#DejaVuSans-49"/>
       <use x="63.623047" xlink:href="#DejaVuSans-53"/>
      </g>
     </g>
    </g>
    <g id="text_6">
     <!-- catalytic rate [s$^{-1}$] -->
     <defs>
      <path d="M 9.421875 75.984375 
L 18.40625 75.984375 
L 18.40625 0 
L 9.421875 0 
z
" id="DejaVuSans-108"/>
      <path d="M 32.171875 -5.078125 
Q 28.375 -14.84375 24.75 -17.8125 
Q 21.140625 -20.796875 15.09375 -20.796875 
L 7.90625 -20.796875 
L 7.90625 -13.28125 
L 13.1875 -13.28125 
Q 16.890625 -13.28125 18.9375 -11.515625 
Q 21 -9.765625 23.484375 -3.21875 
L 25.09375 0.875 
L 2.984375 54.6875 
L 12.5 54.6875 
L 29.59375 11.921875 
L 46.6875 54.6875 
L 56.203125 54.6875 
z
" id="DejaVuSans-121"/>
      <path d="M 56.203125 29.59375 
L 56.203125 25.203125 
L 14.890625 25.203125 
Q 15.484375 15.921875 20.484375 11.0625 
Q 25.484375 6.203125 34.421875 6.203125 
Q 39.59375 6.203125 44.453125 7.46875 
Q 49.3125 8.734375 54.109375 11.28125 
L 54.109375 2.78125 
Q 49.265625 0.734375 44.1875 -0.34375 
Q 39.109375 -1.421875 33.890625 -1.421875 
Q 20.796875 -1.421875 13.15625 6.1875 
Q 5.515625 13.8125 5.515625 26.8125 
Q 5.515625 40.234375 12.765625 48.109375 
Q 20.015625 56 32.328125 56 
Q 43.359375 56 49.78125 48.890625 
Q 56.203125 41.796875 56.203125 29.59375 
z
M 47.21875 32.234375 
Q 47.125 39.59375 43.09375 43.984375 
Q 39.0625 48.390625 32.421875 48.390625 
Q 24.90625 48.390625 20.390625 44.140625 
Q 15.875 39.890625 15.1875 32.171875 
z
" id="DejaVuSans-101"/>
      <path d="M 8.59375 75.984375 
L 29.296875 75.984375 
L 29.296875 69 
L 17.578125 69 
L 17.578125 -6.203125 
L 29.296875 -6.203125 
L 29.296875 -13.1875 
L 8.59375 -13.1875 
z
" id="DejaVuSans-91"/>
      <path d="M 10.59375 35.5 
L 73.1875 35.5 
L 73.1875 27.203125 
L 10.59375 27.203125 
z
" id="DejaVuSans-8722"/>
      <path d="M 30.421875 75.984375 
L 30.421875 -13.1875 
L 9.71875 -13.1875 
L 9.71875 -6.203125 
L 21.390625 -6.203125 
L 21.390625 69 
L 9.71875 69 
L 9.71875 75.984375 
z
" id="DejaVuSans-93"/>
     </defs>
     <g transform="translate(103.942969 259.53)rotate(-90)scale(0.25 -0.25)">
      <use transform="translate(0 0.684375)" xlink:href="#DejaVuSans-99"/>
      <use transform="translate(54.980469 0.684375)" xlink:href="#DejaVuSans-97"/>
      <use transform="translate(116.259766 0.684375)" xlink:href="#DejaVuSans-116"/>
      <use transform="translate(155.46875 0.684375)" xlink:href="#DejaVuSans-97"/>
      <use transform="translate(216.748047 0.684375)" xlink:href="#DejaVuSans-108"/>
      <use transform="translate(244.53125 0.684375)" xlink:href="#DejaVuSans-121"/>
      <use transform="translate(303.710938 0.684375)" xlink:href="#DejaVuSans-116"/>
      <use transform="translate(342.919922 0.684375)" xlink:href="#DejaVuSans-105"/>
      <use transform="translate(370.703125 0.684375)" xlink:href="#DejaVuSans-99"/>
      <use transform="translate(425.683594 0.684375)" xlink:href="#DejaVuSans-32"/>
      <use transform="translate(457.470703 0.684375)" xlink:href="#DejaVuSans-114"/>
      <use transform="translate(498.583984 0.684375)" xlink:href="#DejaVuSans-97"/>
      <use transform="translate(559.863281 0.684375)" xlink:href="#DejaVuSans-116"/>
      <use transform="translate(599.072266 0.684375)" xlink:href="#DejaVuSans-101"/>
      <use transform="translate(660.595703 0.684375)" xlink:href="#DejaVuSans-32"/>
      <use transform="translate(692.382812 0.684375)" xlink:href="#DejaVuSans-91"/>
      <use transform="translate(731.396484 0.684375)" xlink:href="#DejaVuSans-115"/>
      <use transform="translate(784.453125 38.965625)scale(0.7)" xlink:href="#DejaVuSans-8722"/>
      <use transform="translate(843.105469 38.965625)scale(0.7)" xlink:href="#DejaVuSans-49"/>
      <use transform="translate(890.375977 0.684375)" xlink:href="#DejaVuSans-93"/>
     </g>
     <!-- at 4% CO$_{2}$ at 30 $\degree$C -->
     <defs>
      <path d="M 37.796875 64.3125 
L 12.890625 25.390625 
L 37.796875 25.390625 
z
M 35.203125 72.90625 
L 47.609375 72.90625 
L 47.609375 25.390625 
L 58.015625 25.390625 
L 58.015625 17.1875 
L 47.609375 17.1875 
L 47.609375 0 
L 37.796875 0 
L 37.796875 17.1875 
L 4.890625 17.1875 
L 4.890625 26.703125 
z
" id="DejaVuSans-52"/>
      <path d="M 72.703125 32.078125 
Q 68.453125 32.078125 66.03125 28.46875 
Q 63.625 24.859375 63.625 18.40625 
Q 63.625 12.0625 66.03125 8.421875 
Q 68.453125 4.78125 72.703125 4.78125 
Q 76.859375 4.78125 79.265625 8.421875 
Q 81.6875 12.0625 81.6875 18.40625 
Q 81.6875 24.8125 79.265625 28.4375 
Q 76.859375 32.078125 72.703125 32.078125 
z
M 72.703125 38.28125 
Q 80.421875 38.28125 84.953125 32.90625 
Q 89.5 27.546875 89.5 18.40625 
Q 89.5 9.28125 84.9375 3.921875 
Q 80.375 -1.421875 72.703125 -1.421875 
Q 64.890625 -1.421875 60.34375 3.921875 
Q 55.8125 9.28125 55.8125 18.40625 
Q 55.8125 27.59375 60.375 32.9375 
Q 64.9375 38.28125 72.703125 38.28125 
z
M 22.3125 68.015625 
Q 18.109375 68.015625 15.6875 64.375 
Q 13.28125 60.75 13.28125 54.390625 
Q 13.28125 47.953125 15.671875 44.328125 
Q 18.0625 40.71875 22.3125 40.71875 
Q 26.5625 40.71875 28.96875 44.328125 
Q 31.390625 47.953125 31.390625 54.390625 
Q 31.390625 60.6875 28.953125 64.34375 
Q 26.515625 68.015625 22.3125 68.015625 
z
M 66.40625 74.21875 
L 74.21875 74.21875 
L 28.609375 -1.421875 
L 20.796875 -1.421875 
z
M 22.3125 74.21875 
Q 30.03125 74.21875 34.609375 68.875 
Q 39.203125 63.53125 39.203125 54.390625 
Q 39.203125 45.171875 34.640625 39.84375 
Q 30.078125 34.515625 22.3125 34.515625 
Q 14.546875 34.515625 10.03125 39.859375 
Q 5.515625 45.21875 5.515625 54.390625 
Q 5.515625 63.484375 10.046875 68.84375 
Q 14.59375 74.21875 22.3125 74.21875 
z
" id="DejaVuSans-37"/>
      <path d="M 64.40625 67.28125 
L 64.40625 56.890625 
Q 59.421875 61.53125 53.78125 63.8125 
Q 48.140625 66.109375 41.796875 66.109375 
Q 29.296875 66.109375 22.65625 58.46875 
Q 16.015625 50.828125 16.015625 36.375 
Q 16.015625 21.96875 22.65625 14.328125 
Q 29.296875 6.6875 41.796875 6.6875 
Q 48.140625 6.6875 53.78125 8.984375 
Q 59.421875 11.28125 64.40625 15.921875 
L 64.40625 5.609375 
Q 59.234375 2.09375 53.4375 0.328125 
Q 47.65625 -1.421875 41.21875 -1.421875 
Q 24.65625 -1.421875 15.125 8.703125 
Q 5.609375 18.84375 5.609375 36.375 
Q 5.609375 53.953125 15.125 64.078125 
Q 24.65625 74.21875 41.21875 74.21875 
Q 47.75 74.21875 53.53125 72.484375 
Q 59.328125 70.75 64.40625 67.28125 
z
" id="DejaVuSans-67"/>
      <path d="M 39.40625 66.21875 
Q 28.65625 66.21875 22.328125 58.203125 
Q 16.015625 50.203125 16.015625 36.375 
Q 16.015625 22.609375 22.328125 14.59375 
Q 28.65625 6.59375 39.40625 6.59375 
Q 50.140625 6.59375 56.421875 14.59375 
Q 62.703125 22.609375 62.703125 36.375 
Q 62.703125 50.203125 56.421875 58.203125 
Q 50.140625 66.21875 39.40625 66.21875 
z
M 39.40625 74.21875 
Q 54.734375 74.21875 63.90625 63.9375 
Q 73.09375 53.65625 73.09375 36.375 
Q 73.09375 19.140625 63.90625 8.859375 
Q 54.734375 -1.421875 39.40625 -1.421875 
Q 24.03125 -1.421875 14.8125 8.828125 
Q 5.609375 19.09375 5.609375 36.375 
Q 5.609375 53.65625 14.8125 63.9375 
Q 24.03125 74.21875 39.40625 74.21875 
z
" id="DejaVuSans-79"/>
      <path d="M 19.1875 8.296875 
L 53.609375 8.296875 
L 53.609375 0 
L 7.328125 0 
L 7.328125 8.296875 
Q 12.9375 14.109375 22.625 23.890625 
Q 32.328125 33.6875 34.8125 36.53125 
Q 39.546875 41.84375 41.421875 45.53125 
Q 43.3125 49.21875 43.3125 52.78125 
Q 43.3125 58.59375 39.234375 62.25 
Q 35.15625 65.921875 28.609375 65.921875 
Q 23.96875 65.921875 18.8125 64.3125 
Q 13.671875 62.703125 7.8125 59.421875 
L 7.8125 69.390625 
Q 13.765625 71.78125 18.9375 73 
Q 24.125 74.21875 28.421875 74.21875 
Q 39.75 74.21875 46.484375 68.546875 
Q 53.21875 62.890625 53.21875 53.421875 
Q 53.21875 48.921875 51.53125 44.890625 
Q 49.859375 40.875 45.40625 35.40625 
Q 44.1875 33.984375 37.640625 27.21875 
Q 31.109375 20.453125 19.1875 8.296875 
z
" id="DejaVuSans-50"/>
      <path d="M 40.578125 39.3125 
Q 47.65625 37.796875 51.625 33 
Q 55.609375 28.21875 55.609375 21.1875 
Q 55.609375 10.40625 48.1875 4.484375 
Q 40.765625 -1.421875 27.09375 -1.421875 
Q 22.515625 -1.421875 17.65625 -0.515625 
Q 12.796875 0.390625 7.625 2.203125 
L 7.625 11.71875 
Q 11.71875 9.328125 16.59375 8.109375 
Q 21.484375 6.890625 26.8125 6.890625 
Q 36.078125 6.890625 40.9375 10.546875 
Q 45.796875 14.203125 45.796875 21.1875 
Q 45.796875 27.640625 41.28125 31.265625 
Q 36.765625 34.90625 28.71875 34.90625 
L 20.21875 34.90625 
L 20.21875 43.015625 
L 29.109375 43.015625 
Q 36.375 43.015625 40.234375 45.921875 
Q 44.09375 48.828125 44.09375 54.296875 
Q 44.09375 59.90625 40.109375 62.90625 
Q 36.140625 65.921875 28.71875 65.921875 
Q 24.65625 65.921875 20.015625 65.03125 
Q 15.375 64.15625 9.8125 62.3125 
L 9.8125 71.09375 
Q 15.4375 72.65625 20.34375 73.4375 
Q 25.25 74.21875 29.59375 74.21875 
Q 40.828125 74.21875 47.359375 69.109375 
Q 53.90625 64.015625 53.90625 55.328125 
Q 53.90625 49.265625 50.4375 45.09375 
Q 46.96875 40.921875 40.578125 39.3125 
z
" id="DejaVuSans-51"/>
      <path d="M 25 67.921875 
Q 21.09375 67.921875 18.40625 65.203125 
Q 15.71875 62.5 15.71875 58.59375 
Q 15.71875 54.734375 18.40625 52.078125 
Q 21.09375 49.421875 25 49.421875 
Q 28.90625 49.421875 31.59375 52.078125 
Q 34.28125 54.734375 34.28125 58.59375 
Q 34.28125 62.453125 31.5625 65.1875 
Q 28.859375 67.921875 25 67.921875 
z
M 25 74.21875 
Q 28.125 74.21875 31 73.015625 
Q 33.890625 71.828125 35.984375 69.578125 
Q 38.234375 67.390625 39.359375 64.59375 
Q 40.484375 61.8125 40.484375 58.59375 
Q 40.484375 52.15625 35.96875 47.6875 
Q 31.453125 43.21875 24.90625 43.21875 
Q 18.3125 43.21875 13.90625 47.609375 
Q 9.515625 52 9.515625 58.59375 
Q 9.515625 65.140625 14 69.671875 
Q 18.5 74.21875 25 74.21875 
z
" id="DejaVuSans-176"/>
     </defs>
     <g transform="translate(131.988281 263.655)rotate(-90)scale(0.25 -0.25)">
      <use transform="translate(0 0.78125)" xlink:href="#DejaVuSans-97"/>
      <use transform="translate(61.279297 0.78125)" xlink:href="#DejaVuSans-116"/>
      <use transform="translate(100.488281 0.78125)" xlink:href="#DejaVuSans-32"/>
      <use transform="translate(132.275391 0.78125)" xlink:href="#DejaVuSans-52"/>
      <use transform="translate(195.898438 0.78125)" xlink:href="#DejaVuSans-37"/>
      <use transform="translate(290.917969 0.78125)" xlink:href="#DejaVuSans-32"/>
      <use transform="translate(322.705078 0.78125)" xlink:href="#DejaVuSans-67"/>
      <use transform="translate(392.529297 0.78125)" xlink:href="#DejaVuSans-79"/>
      <use transform="translate(472.197266 -15.625)scale(0.7)" xlink:href="#DejaVuSans-50"/>
      <use transform="translate(519.467773 0.78125)" xlink:href="#DejaVuSans-32"/>
      <use transform="translate(551.254883 0.78125)" xlink:href="#DejaVuSans-97"/>
      <use transform="translate(612.53418 0.78125)" xlink:href="#DejaVuSans-116"/>
      <use transform="translate(651.743164 0.78125)" xlink:href="#DejaVuSans-32"/>
      <use transform="translate(683.530273 0.78125)" xlink:href="#DejaVuSans-51"/>
      <use transform="translate(747.15332 0.78125)" xlink:href="#DejaVuSans-48"/>
      <use transform="translate(810.776367 0.78125)" xlink:href="#DejaVuSans-32"/>
      <use transform="translate(842.563477 0.78125)" xlink:href="#DejaVuSans-176"/>
      <use transform="translate(892.563477 0.78125)" xlink:href="#DejaVuSans-67"/>
     </g>
    </g>
   </g>
   <g id="LineCollection_1">
    <path clip-path="url(#p2c4db6e402)" d="M 187.342105 96.342066 
L 187.342105 44.443636 
" style="fill:none;stroke:#000000;stroke-width:3;"/>
    <path clip-path="url(#p2c4db6e402)" d="M 202.026316 95.106389 
L 202.026316 75.335559 
" style="fill:none;stroke:#000000;stroke-width:3;"/>
    <path clip-path="url(#p2c4db6e402)" d="M 216.710526 103.756127 
L 216.710526 69.157174 
" style="fill:none;stroke:#000000;stroke-width:3;"/>
    <path clip-path="url(#p2c4db6e402)" d="M 246.078947 102.52045 
L 246.078947 80.278266 
" style="fill:none;stroke:#000000;stroke-width:3;"/>
    <path clip-path="url(#p2c4db6e402)" d="M 260.763158 140.826434 
L 260.763158 69.157174 
" style="fill:none;stroke:#000000;stroke-width:3;"/>
    <path clip-path="url(#p2c4db6e402)" d="M 275.447368 118.58425 
L 275.447368 98.813419 
" style="fill:none;stroke:#000000;stroke-width:3;"/>
    <path clip-path="url(#p2c4db6e402)" d="M 290.131579 134.648049 
L 290.131579 112.405865 
" style="fill:none;stroke:#000000;stroke-width:3;"/>
    <path clip-path="url(#p2c4db6e402)" d="M 319.5 138.35508 
L 319.5 123.526957 
" style="fill:none;stroke:#000000;stroke-width:3;"/>
    <path clip-path="url(#p2c4db6e402)" d="M 348.868421 145.769141 
L 348.868421 118.58425 
" style="fill:none;stroke:#000000;stroke-width:3;"/>
    <path clip-path="url(#p2c4db6e402)" d="M 363.552632 137.119403 
L 363.552632 127.233988 
" style="fill:none;stroke:#000000;stroke-width:3;"/>
    <path clip-path="url(#p2c4db6e402)" d="M 378.236842 142.06211 
L 378.236842 124.762634 
" style="fill:none;stroke:#000000;stroke-width:3;"/>
    <path clip-path="url(#p2c4db6e402)" d="M 466.342105 153.183202 
L 466.342105 125.998311 
" style="fill:none;stroke:#000000;stroke-width:3;"/>
    <path clip-path="url(#p2c4db6e402)" d="M 481.026316 161.832941 
L 481.026316 122.29128 
" style="fill:none;stroke:#000000;stroke-width:3;"/>
    <path clip-path="url(#p2c4db6e402)" d="M 495.710526 170.482679 
L 495.710526 116.112896 
" style="fill:none;stroke:#000000;stroke-width:3;"/>
    <path clip-path="url(#p2c4db6e402)" d="M 569.131579 153.183202 
L 569.131579 145.769141 
" style="fill:none;stroke:#000000;stroke-width:3;"/>
    <path clip-path="url(#p2c4db6e402)" d="M 598.5 189.017832 
L 598.5 117.348573 
" style="fill:none;stroke:#000000;stroke-width:3;"/>
    <path clip-path="url(#p2c4db6e402)" d="M 671.921053 158.12591 
L 671.921053 158.12591 
" style="fill:none;stroke:#000000;stroke-width:3;"/>
    <path clip-path="url(#p2c4db6e402)" d="M 715.973684 171.718356 
L 715.973684 149.476172 
" style="fill:none;stroke:#000000;stroke-width:3;"/>
    <path clip-path="url(#p2c4db6e402)" d="M 745.342105 187.782155 
L 745.342105 135.883726 
" style="fill:none;stroke:#000000;stroke-width:3;"/>
    <path clip-path="url(#p2c4db6e402)" d="M 774.710526 172.954033 
L 774.710526 158.12591 
" style="fill:none;stroke:#000000;stroke-width:3;"/>
    <path clip-path="url(#p2c4db6e402)" d="M 1200.552632 235.973554 
L 1200.552632 203.845955 
" style="fill:none;stroke:#000000;stroke-width:3;"/>
    <path clip-path="url(#p2c4db6e402)" d="M 1229.921053 238.444908 
L 1229.921053 228.559492 
" style="fill:none;stroke:#000000;stroke-width:3;"/>
   </g>
   <g id="line2d_5"/>
   <g id="patch_3">
    <path d="M 180 252 
L 180 34.56 
" style="fill:none;stroke:#000000;stroke-linecap:square;stroke-linejoin:miter;stroke-width:2.5;"/>
   </g>
   <g id="patch_4">
    <path d="M 180 252 
L 1296 252 
" style="fill:none;stroke:#000000;stroke-linecap:square;stroke-linejoin:miter;stroke-width:2.5;"/>
   </g>
   <g id="text_7">
    <!-- plant rubiscos -->
    <defs>
     <path d="M 18.109375 8.203125 
L 18.109375 -20.796875 
L 9.078125 -20.796875 
L 9.078125 54.6875 
L 18.109375 54.6875 
L 18.109375 46.390625 
Q 20.953125 51.265625 25.265625 53.625 
Q 29.59375 56 35.59375 56 
Q 45.5625 56 51.78125 48.09375 
Q 58.015625 40.1875 58.015625 27.296875 
Q 58.015625 14.40625 51.78125 6.484375 
Q 45.5625 -1.421875 35.59375 -1.421875 
Q 29.59375 -1.421875 25.265625 0.953125 
Q 20.953125 3.328125 18.109375 8.203125 
z
M 48.6875 27.296875 
Q 48.6875 37.203125 44.609375 42.84375 
Q 40.53125 48.484375 33.40625 48.484375 
Q 26.265625 48.484375 22.1875 42.84375 
Q 18.109375 37.203125 18.109375 27.296875 
Q 18.109375 17.390625 22.1875 11.75 
Q 26.265625 6.109375 33.40625 6.109375 
Q 40.53125 6.109375 44.609375 11.75 
Q 48.6875 17.390625 48.6875 27.296875 
z
" id="DejaVuSans-112"/>
    </defs>
    <g transform="translate(1141.815789 189.5563)scale(0.25 -0.25)">
     <use xlink:href="#DejaVuSans-112"/>
     <use x="63.476562" xlink:href="#DejaVuSans-108"/>
     <use x="91.259766" xlink:href="#DejaVuSans-97"/>
     <use x="152.539062" xlink:href="#DejaVuSans-110"/>
     <use x="215.917969" xlink:href="#DejaVuSans-116"/>
     <use x="255.126953" xlink:href="#DejaVuSans-32"/>
     <use x="286.914062" xlink:href="#DejaVuSans-114"/>
     <use x="328.027344" xlink:href="#DejaVuSans-117"/>
     <use x="391.40625" xlink:href="#DejaVuSans-98"/>
     <use x="454.882812" xlink:href="#DejaVuSans-105"/>
     <use x="482.666016" xlink:href="#DejaVuSans-115"/>
     <use x="534.765625" xlink:href="#DejaVuSans-99"/>
     <use x="589.746094" xlink:href="#DejaVuSans-111"/>
     <use x="650.927734" xlink:href="#DejaVuSans-115"/>
    </g>
   </g>
  </g>
 </g>
 <defs>
  <clipPath id="p2c4db6e402">
   <rect height="217.44" width="1116" x="180" y="34.56"/>
  </clipPath>
 </defs>
</svg>
